<?xml version="1.0" encoding="UTF-8" standalone="no"?>
<!-- Created with Inkscape (http://www.inkscape.org/) -->

<svg
   width="210mm"
   height="297mm"
   viewBox="0 0 210 297"
   version="1.1"
   id="svg5"
   xml:space="preserve"
   inkscape:version="1.2.2 (732a01da63, 2022-12-09)"
   sodipodi:docname="blockcycle.svg"
   inkscape:export-filename="blockcycle.pdf"
   inkscape:export-xdpi="96"
   inkscape:export-ydpi="96"
   xmlns:inkscape="http://www.inkscape.org/namespaces/inkscape"
   xmlns:sodipodi="http://sodipodi.sourceforge.net/DTD/sodipodi-0.dtd"
   xmlns="http://www.w3.org/2000/svg"
   xmlns:svg="http://www.w3.org/2000/svg"><sodipodi:namedview
     id="namedview7"
     pagecolor="#ffffff"
     bordercolor="#000000"
     borderopacity="0.25"
     inkscape:showpageshadow="2"
     inkscape:pageopacity="0.0"
     inkscape:pagecheckerboard="0"
     inkscape:deskcolor="#d1d1d1"
     inkscape:document-units="mm"
     showgrid="false"
     inkscape:zoom="1.4142136"
     inkscape:cx="309.35922"
     inkscape:cy="198.34345"
     inkscape:window-width="1920"
     inkscape:window-height="991"
     inkscape:window-x="-9"
     inkscape:window-y="1341"
     inkscape:window-maximized="1"
     inkscape:current-layer="layer1" /><defs
     id="defs2"><clipPath
       id="vrlAseGzkzaR"><path
         fill="none"
         stroke="none"
         d=" M 0 0 L 1140 0 L 1140 665 L 0 665 L 0 0 Z"
         id="path5411" /></clipPath></defs><g
     inkscape:label="Layer 1"
     inkscape:groupmode="layer"
     id="layer1"><g
       id="g5636"
       clip-path="url(#clipPath5761)"
       transform="matrix(0.01271745,0,0,0.01271745,44.004188,42.633096)" /><g
       id="g9928" /><g
       id="g1968"><g
         id="g1775"><g
           id="g1013"><rect
             style="fill:none;stroke:#000000;stroke-width:0.289928"
             id="rect236"
             width="20.710072"
             height="16.710072"
             x="0.14496402"
             y="0.14496391"
             ry="0" /><text
             xml:space="preserve"
             style="font-size:4.23333px;font-family:'Times New Roman';-inkscape-font-specification:'Times New Roman, ';text-align:center;text-anchor:middle;fill:none;stroke:#000000;stroke-width:0.349001"
             x="10.573236"
             y="9.939353"
             id="text404"><tspan
               sodipodi:role="line"
               id="tspan402"
               style="font-style:normal;font-weight:normal;fill:#000000;fill-opacity:1;stroke:none;stroke-width:0.349"
               x="10.573236"
               y="9.939353">Block 0</tspan></text></g><g
           id="g1747"
           transform="translate(44.81667)"><rect
             style="fill:none;stroke:#000000;stroke-width:0.289928"
             id="rect1741"
             width="20.710072"
             height="16.710072"
             x="0.14496402"
             y="0.14496391"
             ry="0" /><text
             xml:space="preserve"
             style="font-size:4.23333px;font-family:'Times New Roman';-inkscape-font-specification:'Times New Roman, ';text-align:center;text-anchor:middle;fill:none;stroke:#000000;stroke-width:0.349001"
             x="10.573236"
             y="9.939353"
             id="text1745"><tspan
               sodipodi:role="line"
               id="tspan1743"
               style="font-style:normal;font-weight:normal;fill:#000000;fill-opacity:1;stroke:none;stroke-width:0.349"
               x="10.573236"
               y="9.939353">Block n-1</tspan></text></g><rect
           style="fill:#000000;fill-opacity:1;stroke:none;stroke-width:0.228114"
           id="rect2475"
           width="7.2852111"
           height="0.30560347"
           x="22.98138"
           y="8.3735352" /><path
           sodipodi:type="star"
           style="fill:#000000;fill-opacity:1;stroke:none;stroke-width:0.349001"
           id="path2529"
           inkscape:flatsided="true"
           sodipodi:sides="3"
           sodipodi:cx="12.346381"
           sodipodi:cy="24.69276"
           sodipodi:r1="1.7222593"
           sodipodi:r2="0.86112964"
           sodipodi:arg1="1.0471976"
           sodipodi:arg2="2.0943951"
           inkscape:rounded="0"
           inkscape:randomized="0"
           d="M 13.207511,26.184281 10.624122,24.69276 13.207511,23.20124 Z"
           inkscape:transform-center-x="0.43056498"
           transform="translate(10.329398,-16.156783)" /><text
           xml:space="preserve"
           style="font-size:4.23333px;font-family:'Times New Roman';-inkscape-font-specification:'Times New Roman, ';text-align:center;text-anchor:middle;fill:#000000;fill-opacity:1;stroke:none;stroke-width:0.349001"
           x="11.513154"
           y="21.6577"
           id="text2533"><tspan
             sodipodi:role="line"
             id="tspan2531"
             style="stroke-width:0.349"
             x="11.513154"
             y="21.6577">Block n:</tspan></text><g
           id="g7085"
           style="stroke-width:0.4;stroke-dasharray:none"
           transform="translate(-1.7499425,11.375003)"><g
             id="g7133"
             transform="translate(3.7894832,7.5789664)"><rect
               style="fill:none;fill-opacity:1;stroke:#000000;stroke-width:0.4;stroke-dasharray:none;stroke-opacity:1"
               id="rect2535"
               width="83.653206"
               height="24.980246"
               x="2.5013888"
               y="29.150011" /><text
               xml:space="preserve"
               style="font-size:4.23333px;font-family:'Times New Roman';-inkscape-font-specification:'Times New Roman, ';text-align:center;text-anchor:middle;fill:none;fill-opacity:1;stroke:#000000;stroke-width:0.4;stroke-dasharray:none;stroke-opacity:1"
               x="44.305592"
               y="33.860867"
               id="text2539"><tspan
                 sodipodi:role="line"
                 id="tspan2537"
                 style="fill:#000000;fill-opacity:1;stroke:none;stroke-width:0.4;stroke-dasharray:none"
                 x="44.305592"
                 y="33.860867">Content Creators</tspan></text><rect
               style="fill:#000000;fill-opacity:1;stroke:none;stroke-width:0.4;stroke-dasharray:none"
               id="rect2541"
               width="83.554665"
               height="0.30560347"
               x="2.4661226"
               y="35.361046" /><text
               xml:space="preserve"
               style="font-size:3.43958px;font-family:'Times New Roman';-inkscape-font-specification:'Times New Roman, ';text-align:center;text-anchor:middle;fill:#000000;fill-opacity:1;stroke:none;stroke-width:0.4;stroke-dasharray:none;stroke-opacity:1"
               x="19.967113"
               y="39.674915"
               id="text2545"><tspan
                 sodipodi:role="line"
                 id="tspan2543"
                 style="font-size:3.43958px;stroke-width:0.4;stroke-dasharray:none"
                 x="19.967113"
                 y="39.674915">Alice: 0xa...  5000SCap</tspan></text><text
               xml:space="preserve"
               style="font-size:3.43958px;font-family:'Times New Roman';-inkscape-font-specification:'Times New Roman, ';text-align:center;text-anchor:middle;fill:#000000;fill-opacity:1;stroke:none;stroke-width:0.4;stroke-dasharray:none;stroke-opacity:1"
               x="19.967113"
               y="43.908253"
               id="text2549"><tspan
                 sodipodi:role="line"
                 id="tspan2547"
                 style="font-size:3.43958px;stroke-width:0.4;stroke-dasharray:none"
                 x="19.967113"
                 y="43.908253">Bob:   0xb...  7000SCap</tspan></text><text
               xml:space="preserve"
               style="font-size:3.43958px;font-family:'Times New Roman';-inkscape-font-specification:'Times New Roman, ';text-align:center;text-anchor:middle;fill:#000000;fill-opacity:1;stroke:none;stroke-width:0.4;stroke-dasharray:none;stroke-opacity:1"
               x="19.967113"
               y="48.14159"
               id="text2553"><tspan
                 sodipodi:role="line"
                 id="tspan2551"
                 style="font-size:3.43958px;stroke-width:0.4;stroke-dasharray:none"
                 x="19.967113"
                 y="48.14159">Claude: 0xc...  600SCap</tspan></text><text
               xml:space="preserve"
               style="font-size:3.43958px;font-family:'Times New Roman';-inkscape-font-specification:'Times New Roman, ';text-align:center;text-anchor:middle;fill:#000000;fill-opacity:1;stroke:none;stroke-width:0.4;stroke-dasharray:none;stroke-opacity:1"
               x="19.967113"
               y="52.374928"
               id="text2557"><tspan
                 sodipodi:role="line"
                 id="tspan2555"
                 style="font-size:3.43958px;stroke-width:0.4;stroke-dasharray:none"
                 x="19.967113"
                 y="52.374928">...</tspan></text><rect
               style="fill:#000000;fill-opacity:1;stroke:none;stroke-width:0.4;stroke-dasharray:none"
               id="rect3317"
               width="4.3925824"
               height="0.18426211"
               x="-41.515442"
               y="38.581554"
               transform="scale(-1,1)" /><path
               sodipodi:type="star"
               style="fill:#000000;fill-opacity:1;stroke:none;stroke-width:0.66341;stroke-dasharray:none"
               id="path3319"
               inkscape:flatsided="true"
               sodipodi:sides="3"
               sodipodi:cx="12.346381"
               sodipodi:cy="24.69276"
               sodipodi:r1="1.7222593"
               sodipodi:r2="0.86112964"
               sodipodi:arg1="1.0471976"
               sodipodi:arg2="2.0943951"
               inkscape:rounded="0"
               inkscape:randomized="0"
               d="M 13.207511,26.184281 10.624122,24.69276 13.207511,23.20124 Z"
               inkscape:transform-center-x="-0.25960724"
               transform="matrix(-0.60294509,0,0,0.60294509,49.143892,23.791114)" /><rect
               style="fill:#000000;fill-opacity:1;stroke:none;stroke-width:0.4;stroke-dasharray:none"
               id="rect3321"
               width="4.3925824"
               height="0.18426211"
               x="-41.515442"
               y="42.814892"
               transform="scale(-1,1)" /><path
               sodipodi:type="star"
               style="fill:#000000;fill-opacity:1;stroke:none;stroke-width:0.66341;stroke-dasharray:none"
               id="path3323"
               inkscape:flatsided="true"
               sodipodi:sides="3"
               sodipodi:cx="12.346381"
               sodipodi:cy="24.69276"
               sodipodi:r1="1.7222593"
               sodipodi:r2="0.86112964"
               sodipodi:arg1="1.0471976"
               sodipodi:arg2="2.0943951"
               inkscape:rounded="0"
               inkscape:randomized="0"
               d="M 13.207511,26.184281 10.624122,24.69276 13.207511,23.20124 Z"
               inkscape:transform-center-x="-0.25960724"
               transform="matrix(-0.60294509,0,0,0.60294509,49.143892,28.02445)" /><rect
               style="fill:#000000;fill-opacity:1;stroke:none;stroke-width:0.4;stroke-dasharray:none"
               id="rect3325"
               width="4.3925824"
               height="0.18426211"
               x="-41.515442"
               y="47.048229"
               transform="scale(-1,1)" /><path
               sodipodi:type="star"
               style="fill:#000000;fill-opacity:1;stroke:none;stroke-width:0.66341;stroke-dasharray:none"
               id="path3327"
               inkscape:flatsided="true"
               sodipodi:sides="3"
               sodipodi:cx="12.346381"
               sodipodi:cy="24.69276"
               sodipodi:r1="1.7222593"
               sodipodi:r2="0.86112964"
               sodipodi:arg1="1.0471976"
               sodipodi:arg2="2.0943951"
               inkscape:rounded="0"
               inkscape:randomized="0"
               d="M 13.207511,26.184281 10.624122,24.69276 13.207511,23.20124 Z"
               inkscape:transform-center-x="-0.25960724"
               transform="matrix(-0.60294509,0,0,0.60294509,49.143892,32.257786)" /><rect
               style="fill:none;fill-opacity:1;stroke:#000000;stroke-width:0.4;stroke-dasharray:none;stroke-opacity:1"
               id="rect3329"
               width="16.773268"
               height="15.423214"
               x="43.015869"
               y="37.087166" /><text
               xml:space="preserve"
               style="font-size:3.43958px;font-family:'Times New Roman';-inkscape-font-specification:'Times New Roman, ';text-align:center;text-anchor:middle;fill:none;fill-opacity:1;stroke:#000000;stroke-width:0.4;stroke-dasharray:none;stroke-opacity:1"
               x="51.280262"
               y="40.526295"
               id="text3333"><tspan
                 sodipodi:role="line"
                 id="tspan3331"
                 style="fill:#000000;fill-opacity:1;stroke:none;stroke-width:0.4;stroke-dasharray:none"
                 x="51.280262"
                 y="40.526295">Scaling fn</tspan></text><rect
               style="fill:#000000;fill-opacity:1;stroke:none;stroke-width:0.4;stroke-dasharray:none"
               id="rect3343"
               width="4.3925824"
               height="0.18426211"
               x="-41.515442"
               y="51.281567"
               transform="scale(-1,1)" /><path
               sodipodi:type="star"
               style="fill:#000000;fill-opacity:1;stroke:none;stroke-width:0.66341;stroke-dasharray:none"
               id="path3345"
               inkscape:flatsided="true"
               sodipodi:sides="3"
               sodipodi:cx="12.346381"
               sodipodi:cy="24.69276"
               sodipodi:r1="1.7222593"
               sodipodi:r2="0.86112964"
               sodipodi:arg1="1.0471976"
               sodipodi:arg2="2.0943951"
               inkscape:rounded="0"
               inkscape:randomized="0"
               d="M 13.207511,26.184281 10.624122,24.69276 13.207511,23.20124 Z"
               inkscape:transform-center-x="-0.25960724"
               transform="matrix(-0.60294509,0,0,0.60294509,49.143892,36.491122)" /><rect
               style="fill:#000000;fill-opacity:1;stroke:none;stroke-width:0.4;stroke-dasharray:none"
               id="rect3347"
               width="4.3925824"
               height="0.18426211"
               x="-64.452988"
               y="47.048229"
               transform="scale(-1,1)" /><path
               sodipodi:type="star"
               style="fill:#000000;fill-opacity:1;stroke:none;stroke-width:0.66341;stroke-dasharray:none"
               id="path3349"
               inkscape:flatsided="true"
               sodipodi:sides="3"
               sodipodi:cx="12.346381"
               sodipodi:cy="24.69276"
               sodipodi:r1="1.7222593"
               sodipodi:r2="0.86112964"
               sodipodi:arg1="1.0471976"
               sodipodi:arg2="2.0943951"
               inkscape:rounded="0"
               inkscape:randomized="0"
               d="M 13.207511,26.184281 10.624122,24.69276 13.207511,23.20124 Z"
               inkscape:transform-center-x="-0.25960724"
               transform="matrix(-0.60294509,0,0,0.60294509,72.081436,32.257786)" /><rect
               style="fill:#000000;fill-opacity:1;stroke:none;stroke-width:0.4;stroke-dasharray:none"
               id="rect3351"
               width="4.3925824"
               height="0.18426211"
               x="-64.452988"
               y="51.281567"
               transform="scale(-1,1)" /><path
               sodipodi:type="star"
               style="fill:#000000;fill-opacity:1;stroke:none;stroke-width:0.66341;stroke-dasharray:none"
               id="path3353"
               inkscape:flatsided="true"
               sodipodi:sides="3"
               sodipodi:cx="12.346381"
               sodipodi:cy="24.69276"
               sodipodi:r1="1.7222593"
               sodipodi:r2="0.86112964"
               sodipodi:arg1="1.0471976"
               sodipodi:arg2="2.0943951"
               inkscape:rounded="0"
               inkscape:randomized="0"
               d="M 13.207511,26.184281 10.624122,24.69276 13.207511,23.20124 Z"
               inkscape:transform-center-x="-0.25960724"
               transform="matrix(-0.60294509,0,0,0.60294509,72.081436,36.491122)" /><rect
               style="fill:#000000;fill-opacity:1;stroke:none;stroke-width:0.4;stroke-dasharray:none"
               id="rect3355"
               width="4.3925824"
               height="0.18426211"
               x="-64.452988"
               y="42.814892"
               transform="scale(-1,1)" /><path
               sodipodi:type="star"
               style="fill:#000000;fill-opacity:1;stroke:none;stroke-width:0.66341;stroke-dasharray:none"
               id="path3357"
               inkscape:flatsided="true"
               sodipodi:sides="3"
               sodipodi:cx="12.346381"
               sodipodi:cy="24.69276"
               sodipodi:r1="1.7222593"
               sodipodi:r2="0.86112964"
               sodipodi:arg1="1.0471976"
               sodipodi:arg2="2.0943951"
               inkscape:rounded="0"
               inkscape:randomized="0"
               d="M 13.207511,26.184281 10.624122,24.69276 13.207511,23.20124 Z"
               inkscape:transform-center-x="-0.25960724"
               transform="matrix(-0.60294509,0,0,0.60294509,72.081436,28.02445)" /><rect
               style="fill:#000000;fill-opacity:1;stroke:none;stroke-width:0.4;stroke-dasharray:none"
               id="rect3359"
               width="4.3925824"
               height="0.18426211"
               x="-64.452988"
               y="38.581554"
               transform="scale(-1,1)" /><path
               sodipodi:type="star"
               style="fill:#000000;fill-opacity:1;stroke:none;stroke-width:0.66341;stroke-dasharray:none"
               id="path3361"
               inkscape:flatsided="true"
               sodipodi:sides="3"
               sodipodi:cx="12.346381"
               sodipodi:cy="24.69276"
               sodipodi:r1="1.7222593"
               sodipodi:r2="0.86112964"
               sodipodi:arg1="1.0471976"
               sodipodi:arg2="2.0943951"
               inkscape:rounded="0"
               inkscape:randomized="0"
               d="M 13.207511,26.184281 10.624122,24.69276 13.207511,23.20124 Z"
               inkscape:transform-center-x="-0.25960724"
               transform="matrix(-0.60294509,0,0,0.60294509,72.081436,23.791114)" /><rect
               fill="#ffffff"
               stroke="none"
               x="0"
               y="0"
               width="1140"
               height="666"
               fill-opacity="1"
               id="rect5416"
               transform="matrix(0.01271745,0,0,0.01271745,44.004188,42.633096)"
               style="stroke-width:31.4528;stroke-dasharray:none" /><path
               fill="none"
               stroke="#252525"
               paint-order="fill stroke markers"
               d="m 63.5,2.5 v 576"
               stroke-opacity="1"
               stroke-miterlimit="10"
               id="path5418"
               style="stroke-width:31.4528;stroke-dasharray:none"
               transform="matrix(0.01271745,0,0,0.01271745,44.004188,42.633096)" /><path
               fill="none"
               stroke="#252525"
               paint-order="fill stroke markers"
               d="m 63.5,578.5 h 1075"
               stroke-opacity="1"
               stroke-miterlimit="10"
               id="path5424"
               style="stroke-width:31.4528;stroke-dasharray:none"
               transform="matrix(0.01271745,0,0,0.01271745,44.004188,42.633096)" /><text
               fill="#252525"
               stroke="none"
               font-family="geogebra-sans-serif, sans-serif"
               font-size="12px"
               font-style="normal"
               font-weight="normal"
               text-decoration="normal"
               x="49"
               y="594"
               text-anchor="start"
               dominant-baseline="alphabetic"
               fill-opacity="1"
               id="text5532"
               transform="matrix(0.01271745,0,0,0.01271745,44.004188,42.633096)"
               style="stroke-width:31.4528;stroke-dasharray:none">0</text><path
               fill="none"
               stroke="#1565c0"
               paint-order="fill stroke markers"
               d="m 64,565.08136 v 13.60342 -13.60342 l 1,-6.64412 v 0 l 1,-4.94914 v 0 l 1,-4.12537 v 0 l 1,-3.61262 v 0 l 1,-3.25375 v 0 l 1,-2.98442 v 0 l 1,-2.77262 v 0 l 1,-2.60037 v 0 l 1,-2.45674 v 0 l 1,-2.33455 v 0 l 1,-2.22896 v 0 l 1,-2.13653 v 0 l 1,-2.05472 v 0 l 1,-1.98165 v 0 l 1,-1.91586 v 0 l 1,-1.85621 v 0 l 1,-1.80182 v 0 l 1,-1.75194 v 0 l 1,-1.70599 v 0 l 1,-1.66347 v 0 l 1,-1.62398 v 0 l 1,-1.58719 v 0 l 1,-1.55277 v 0 l 1,-1.52052 v 0 l 1,-1.49018 v 0 l 1,-1.4616 v 0 l 1,-1.43459 v 0 l 1,-1.40904 v 0 l 1,-1.38481 v 0 l 1,-1.36177 v 0 l 1,-1.33985 v 0 l 1,-1.31897 v 0 l 1,-1.29902 v 0 l 1,-1.27995 v 0 l 1,-1.2617 v 0 l 1,-1.24422 v 0 l 1,-1.22743 v 0 l 1,-1.21131 v 0 l 1,-1.1958 v 0 l 1,-1.18089 v 0 l 1,-1.1665 v 0 l 1,-1.15265 v 0 l 1,-1.13926 v 0 l 1,-1.12633 v 0 l 1,-1.11384 v 0 l 1,-1.10175 v 0 l 1,-1.09005 v 0 l 1,-1.07871 v 0 l 1,-1.06771 v 0 l 1,-1.05706 v 0 l 1,-1.0467 v 0 l 1,-1.03666 v 0 l 1,-1.02688 v 0 l 1,-1.01739 v 0 l 1,-1.00816 v 0 l 1,-0.99916 v 0 l 1,-0.99041 v 0 l 1,-0.98188 v 0 l 1,-0.97357 v 0 l 1,-0.96547 v 0 l 1,-0.95756 v 0 l 1,-0.94985 v 0 l 1,-0.94232 v 0 l 1,-0.93496 v 0 l 1,-0.92778 v 0 l 1,-0.92076 v 0 l 1,-0.91389 v 0 l 1,-0.90719 v 0 l 1,-0.90061 v 0 l 1,-0.89419 v 0 l 1,-0.8879 v 0 l 1,-0.88173 v 0 l 1,-0.87571 v 0 l 1,-0.86979 v 0 l 1,-0.864 v 0 l 1,-0.85832 v 0 l 1,-0.85275 v 0 l 1,-0.84729 v 0 l 1,-0.84193 v 0 l 1,-0.83668 v 0 l 1,-0.83151 v 0 l 1,-0.82645 v 0 l 1,-0.82148 v 0 l 1,-0.81659 v 0 l 1,-0.81179 v 0 l 1,-0.80707 v 0 l 1,-0.80244 v 0 l 1,-0.79788 v 0 l 1,-0.79341 v 0 l 1,-0.789 v 0 l 1,-0.78467 v 0 l 1,-0.78041 v 0 l 1,-0.77621 v 0 l 1,-0.77209 v 0 l 1,-0.76803 v 0 l 1,-0.76403 v 0 l 1,-0.7601 v 0 l 1,-0.75622 v 0 l 1,-0.7524 v 0 l 1,-0.74864 v 0 l 1,-0.74495 v 0 l 1,-0.74129 v 0 l 1,-0.73769 v 0 l 1,-0.73416 v 0 l 1,-0.73065 v 0 l 1,-0.72722 v 0 l 1,-0.72382 v 0 l 1,-0.72046 v 0 l 1,-0.71717 v 0 l 1,-0.71391 v 0 l 1,-0.71069 v 0 l 1,-0.70753 v 0 l 1,-0.70439 v 0 l 1,-0.70131 v 0 l 1,-0.69826 v 0 l 1,-0.69526 v 0 l 1,-0.69228 v 0 l 1,-0.68935 v 0 l 1,-0.68646 v 0 l 1,-0.6836 v 0 l 1,-0.68077 v 0 l 1,-0.67799 v 0 l 1,-0.67523 v 0 l 1,-0.67251 v 0 l 1,-0.66983 v 0 l 1,-0.66716 v 0 l 1,-0.66455 v 0 l 1,-0.66194 v 0 l 1,-0.65938 v 0 l 1,-0.65685 v 0 l 1,-0.65434 v 0 l 1,-0.65187 v 0 l 1,-0.64942 v 0 l 1,-0.64699 v 0 l 1,-0.6446 v 0 l 1,-0.64223 v 0 l 1,-0.63989 v 0 l 1,-0.63757 v 0 l 1,-0.63527 v 0 l 1,-0.63301 v 0 l 1,-0.63077 v 0 l 1,-0.62855 v 0 l 1,-0.62635 v 0 l 1,-0.62417 v 0 l 1,-0.62203 v 0 l 1,-0.6199 v 0 l 1,-0.61778 v 0 l 1,-0.61571 v 0 l 1,-0.61363 v 0 l 1,-0.6116 v 0 l 1,-0.60957 v 0 l 1,-0.60756 v 0 l 1,-0.60558 v 0 l 1,-0.60361 v 0 l 1,-0.60167 v 0 l 1,-0.59974 v 0 l 1,-0.59784 v 0 l 1,-0.59594 v 0 l 1,-0.59406 v 0 l 1,-0.59222 v 0 l 1,-0.59037 v 0 l 1,-0.58855 v 0 l 1,-0.58675 v 0 l 1,-0.58496 v 0 l 1,-0.58319 v 0 l 1,-0.58143 v 0 l 1,-0.57969 v 0 l 1,-0.57797 v 0 l 1,-0.57625 v 0 l 1,-0.57457 v 0 l 1,-0.57288 v 0 l 1,-0.57122 v 0 l 1,-0.56957 v 0 l 1,-0.56794 v 0 l 1,-0.56631 v 0 l 1,-0.5647 v 0 l 1,-0.56311 v 0 l 1,-0.56153 v 0 l 1,-0.55996 v 0 l 1,-0.5584 v 0 l 1,-0.55687 v 0 l 1,-0.55533 v 0 l 1,-0.55382 v 0 l 1,-0.55231 v 0 l 1,-0.55082 v 0 l 1,-0.54934 v 0 l 1,-0.54787 v 0 l 1,-0.54642 v 0 l 1,-0.54497 v 0 l 1,-0.54354 v 0 l 1,-0.54211 v 0 l 1,-0.5407 v 0 l 1,-0.53931 v 0 l 1,-0.53791 v 0 l 1,-0.53654 v 0 l 1,-0.53516 v 0 l 1,-0.53381 v 0 l 1,-0.53246 v 0 l 1,-0.53113 v 0 l 1,-0.52979 v 0 l 1,-0.52848 v 0 l 1,-0.52718 v 0 l 1,-0.52587 v 0 l 1,-0.52459 v 0 l 1,-0.5233 v 0 l 1,-0.52204 v 0 l 1,-0.52077 v 0 l 1,-0.51953 v 0 l 1,-0.51828 v 0 l 1,-0.51705 v 0 l 1,-0.51582 v 0 l 1,-0.51461 v 0 l 1,-0.5134 v 0 l 1,-0.5122 v 0 l 1,-0.51101 v 0 l 1,-0.50983 v 0 l 1,-0.50865 v 0 l 1,-0.50749 v 0 l 1,-0.50633 v 0 l 1,-0.50518 v 0 l 1,-0.50403 v 0 l 1,-0.5029 v 0 l 1,-0.50178 v 0 l 1,-0.50065 v 0 l 1,-0.49954 v 0 l 1,-0.49844 v 0 l 1,-0.49734 v 0 l 1,-0.49625 v 0 l 1,-0.49517 v 0 l 1,-0.49409 v 0 l 1,-0.49302 v 0 l 1,-0.49195 v 0 l 1,-0.49091 v 0 l 1,-0.48985 v 0 l 1,-0.48882 v 0 l 1,-0.48777 v 0 l 1,-0.48675 v 0 l 1,-0.48573 v 0 l 1,-0.48471 v 0 l 1,-0.4837 v 0 l 1,-0.4827 v 0 l 1,-0.4817 v 0 l 1,-0.48071 v 0 l 1,-0.47972 v 0 l 1,-0.47875 v 0 l 1,-0.47777 v 0 l 1,-0.47681 v 0 l 1,-0.47584 v 0 l 1,-0.47489 v 0 l 1,-0.47395 v 0 l 1,-0.47299 v 0 l 1,-0.47206 v 0 l 1,-0.47113 v 0 l 1,-0.4702 v 0 l 1,-0.46927 v 0 l 1,-0.46837 v 0 l 1,-0.46745 v 0 l 1,-0.46654 v 0 l 1,-0.46564 v 0 l 1,-0.46475 v 0 l 1,-0.46386 v 0 l 1,-0.46298 v 0 l 1,-0.46209 v 0 l 1,-0.46122 v 0 l 1,-0.46035 v 0 l 1,-0.45948 v 0 l 1,-0.45862 v 0 l 1,-0.45777 v 0 l 1,-0.45692 v 0 l 1,-0.45607 v 0 l 1,-0.45523 v 0 l 1,-0.4544 v 0 l 1,-0.45356 v 0 l 1,-0.45273 v 0 l 1,-0.45191 v 0 l 1,-0.4511 v 0 l 1,-0.45028 v 0 l 1,-0.44946 v 0 l 1,-0.44867 v 0 l 1,-0.44786 v 0 l 1,-0.44707 v 0 l 1,-0.44627 v 0 l 1,-0.44549 v 0 l 1,-0.4447 v 0 l 1,-0.44392 v 0 l 1,-0.44315 v 0 l 1,-0.44237 v 0 l 1,-0.44161 v 0 l 1,-0.44084 v 0 l 1,-0.44008 v 0 l 1,-0.43933 v 0 l 1,-0.43857 v 0 l 1,-0.43783 v 0 l 1,-0.43708 v 0 l 1,-0.43634 v 0 l 1,-0.4356 v 0 l 1,-0.43487 v 0 l 1,-0.43414 v 0 l 1,-0.43342 v 0 l 1,-0.43269 v 0 l 1,-0.43198 v 0 l 1,-0.43126 v 0 l 1,-0.43055 v 0 l 1,-0.42984 v 0 l 1,-0.42913 v 0 l 1,-0.42844 v 0 l 1,-0.42773 v 0 l 1,-0.42705 v 0 l 1,-0.42635 v 0 l 1,-0.42566 v 0 l 1,-0.42498 v 0 l 1,-0.4243 v 0 l 1,-0.42363 v 0 l 1,-0.42294 v 0 l 1,-0.42228 v 0 l 1,-0.42161 v 0 l 1,-0.42094 v 0 l 1,-0.42028 v 0 l 1,-0.41963 v 0 l 1,-0.41896 v 0 l 1,-0.41832 v 0 l 1,-0.41766 v 0 l 1,-0.41702 v 0 l 1,-0.41638 v 0 l 1,-0.41573 v 0 l 1,-0.4151 v 0 l 1,-0.41447 v 0 l 1,-0.41383 v 0 l 1,-0.4132 v 0 l 1,-0.41258 v 0 l 1,-0.41195 v 0 l 1,-0.41134 v 0 l 1,-0.41071 v 0 l 1,-0.4101 v 0 l 1,-0.40949 v 0 l 1,-0.40888 v 0 l 1,-0.40828 v 0 l 1,-0.40767 v 0 l 1,-0.40707 v 0 l 1,-0.40647 v 0 l 1,-0.40587 v 0 l 1,-0.40528 v 0 l 1,-0.40469 v 0 l 1,-0.4041 v 0 l 1,-0.40352 v 0 l 1,-0.40293 v 0 l 1,-0.40236 v 0 l 1,-0.40177 v 0 l 1,-0.4012 v 0 l 1,-0.40063 v 0 l 1,-0.40006 v 0 l 1,-0.39949 v 0 l 1,-0.39892 v 0 l 1,-0.39836 v 0 l 1,-0.39779 v 0 l 1,-0.39724 v 0 l 1,-0.39669 v 0 l 1,-0.39613 v 0 l 1,-0.39557 v 0 l 1,-0.39503 v 0 l 1,-0.39448 v 0 l 1,-0.39394 v 0 l 1,-0.3934 v 0 l 1,-0.39285 v 0 l 1,-0.39232 v 0 l 1,-0.39178 v 0 l 1,-0.39124 v 0 l 1,-0.39072 v 0 l 1,-0.39018 v 0 l 1,-0.38966 v 0 l 1,-0.38913 v 0 l 1,-0.38862 v 0 l 1,-0.38808 v 0 l 1,-0.38758 v 0 l 1,-0.38705 v 0 l 1,-0.38654 v 0 l 1,-0.38603 v 0 l 1,-0.38551 v 0 l 1,-0.38501 v 0 l 1,-0.3845 v 0 l 1,-0.384 v 0 l 1,-0.38349 v 0 l 1,-0.383 v 0 l 1,-0.38249 v 0 l 1,-0.382 v 0 l 1,-0.38151 v 0 l 1,-0.38101 v 0 l 1,-0.38052 v 0 l 1,-0.38003 v 0 l 1,-0.37954 v 0 l 1,-0.37906 v 0 l 1,-0.37858 v 0 l 1,-0.37809 v 0 l 1,-0.37762 v 0 l 1,-0.37713 v 0 l 1,-0.37666 v 0 l 1,-0.37619 v 0 l 1,-0.37571 v 0 l 1,-0.37524 v 0 l 1,-0.37478 v 0 l 1,-0.37431 v 0 l 1,-0.37384 v 0 l 1,-0.37337 v 0 l 1,-0.37292 v 0 l 1,-0.37245 v 0 l 1,-0.372 v 0 l 1,-0.37154 v 0 l 1,-0.37108 v 0 l 1,-0.37063 v 0 l 1,-0.37018 v 0 l 1,-0.36973 v 0 l 1,-0.36928 v 0 l 1,-0.36883 v 0 l 1,-0.36839 v 0 l 1,-0.36795 v 0 l 1,-0.3675 v 0 l 1,-0.36706 v 0 l 1,-0.36662 v 0 l 1,-0.36618 v 0 l 1,-0.36575 v 0 l 1,-0.36532 v 0 l 1,-0.36488 v 0 l 1,-0.36445 v 0 l 1,-0.36402 v 0 l 1,-0.36359 v 0 l 1,-0.36317 v 0 l 1,-0.36274 v 0 l 1,-0.36232 v 0 l 1,-0.36189 v 0 l 1,-0.36148 v 0 l 1,-0.36105 v 0 l 1,-0.36064 v 0 l 1,-0.36022 v 0 l 1,-0.3598 v 0 l 1,-0.3594 v 0 l 1,-0.35898 v 0 l 1,-0.35856 v 0 l 1,-0.35816 v 0 l 1,-0.35776 v 0 l 1,-0.35734 v 0 l 1,-0.35694 v 0 l 1,-0.35654 v 0 l 1,-0.35614 v 0 l 1,-0.35573 v 0 l 1,-0.35533 v 0 l 1,-0.35494 v 0 l 1,-0.35454 v 0 l 1,-0.35414 v 0 l 1,-0.35375 v 0 l 1,-0.35336 v 0 l 1,-0.35296 v 0 l 1,-0.35257 v 0 l 1,-0.35219 v 0 l 1,-0.35179 v 0 l 1,-0.35142 v 0 l 1,-0.35102 v 0 l 1,-0.35064 v 0 l 1,-0.35026 v 0 l 1,-0.34988 v 0 l 1,-0.34949 v 0 l 1,-0.34912 v 0 l 1,-0.34874 v 0 l 1,-0.34836 v 0 l 1,-0.34799 v 0 l 1,-0.34762 v 0 l 1,-0.34724 v 0 l 1,-0.34687 v 0 l 1,-0.3465 v 0 l 1,-0.34612 v 0 l 1,-0.34577 v 0 l 1,-0.34539 v 0 l 1,-0.34503 v 0 l 1,-0.34466 v 0 l 1,-0.3443 v 0 l 1,-0.34394 v 0 l 1,-0.34358 v 0 l 1,-0.34321 v 0 l 1,-0.34286 v 0 l 1,-0.3425 v 0 l 1,-0.34214 v 0 l 1,-0.34179 v 0 l 1,-0.34143 v 0 l 1,-0.34108 v 0 l 1,-0.34073 v 0 l 1,-0.34038 v 0 l 1,-0.34002 v 0 l 1,-0.33968 v 0 l 1,-0.33933 v 0 l 1,-0.33898 v 0 l 1,-0.33864 v 0 l 1,-0.33829 v 0 l 1,-0.33794 v 0 l 1,-0.33761 v 0 l 1,-0.33726 v 0 l 1,-0.33693 v 0 l 1,-0.33658 v 0 l 1,-0.33624 v 0 l 1,-0.33591 v 0 l 1,-0.33557 v 0 l 1,-0.33523 v 0 l 1,-0.3349 v 0 l 1,-0.33457 v 0 l 1,-0.33424 v 0 l 1,-0.3339 v 0 l 1,-0.33357 v 0 l 1,-0.33324 v 0 l 1,-0.33292 v 0 l 1,-0.33258 v 0 l 1,-0.33226 v 0 l 1,-0.33194 v 0 l 1,-0.33161 v 0 l 1,-0.33128 v 0 l 1,-0.33097 v 0 l 1,-0.33064 v 0 l 1,-0.33032 v 0 l 1,-0.33 v 0 l 1,-0.32968 v 0 l 1,-0.32936 v 0 l 1,-0.32904 v 0 l 1,-0.32873 v 0 l 1,-0.32842 v 0 l 1,-0.32809 v 0 l 1,-0.32779 v 0 l 1,-0.32747 v 0 l 1,-0.32716 v 0 l 1,-0.32685 v 0 l 1,-0.32654 v 0 l 1,-0.32623 v 0 l 1,-0.32593 v 0 l 1,-0.32561 v 0 l 1,-0.32531 v 0 l 1,-0.325 v 0 l 1,-0.3247 v 0 l 1,-0.32439 v 0 l 1,-0.32409 v 0 l 1,-0.32379 v 0 l 1,-0.32349 v 0 l 1,-0.32318 v 0 l 1,-0.32289 v 0 l 1,-0.32259 v 0 l 1,-0.32229 v 0 l 1,-0.32199 v 0 l 1,-0.3217 v 0 l 1,-0.3214 v 0 l 1,-0.3211 v 0 l 1,-0.32081 v 0 l 1,-0.32052 v 0 l 1,-0.32023 v 0 l 1,-0.31993 v 0 l 1,-0.31964 v 0 l 1,-0.31936 v 0 l 1,-0.31906 v 0 l 1,-0.31878 v 0 l 1,-0.31848 v 0 l 1,-0.3182 v 0 l 1,-0.31792 v 0 l 1,-0.31763 v 0 l 1,-0.31734 v 0 l 1,-0.31707 v 0 l 1,-0.31677 v 0 l 1,-0.3165 v 0 l 1,-0.31621 v 0 l 1,-0.31594 v 0 l 1,-0.31565 v 0 l 1,-0.31537 v 0 l 1,-0.3151 v 0 l 1,-0.31482 v 0 l 1,-0.31454 v 0 l 1,-0.31426 v 0 l 1,-0.31399 v 0 l 1,-0.31371 v 0 l 1,-0.31344 v 0 l 1,-0.31317 v 0 l 1,-0.31289 v 0 l 1,-0.31262 v 0 l 1,-0.31235 v 0 l 1,-0.31208 v 0 l 1,-0.31181 v 0 l 1,-0.31154 v 0 l 1,-0.31127 v 0 l 1,-0.31101 v 0 l 1,-0.31073 v 0 l 1,-0.31047 v 0 l 1,-0.31021 v 0 l 1,-0.30994 v 0 l 1,-0.30967 v 0 l 1,-0.30941 v 0 l 1,-0.30915 v 0 l 1,-0.30889 v 0 l 1,-0.30862 v 0 l 1,-0.30836 v 0 l 1,-0.30811 v 0 l 1,-0.30784 v 0 l 1,-0.30758 v 0 l 1,-0.30733 v 0 l 1,-0.30707 v 0 l 1,-0.30681 v 0 l 1,-0.30655 v 0 l 1,-0.3063 v 0 l 1,-0.30604 v 0 l 1,-0.30579 v 0 l 1,-0.30553 v 0 l 1,-0.30528 v 0 l 1,-0.30503 v 0 l 1,-0.30478 v 0 l 1,-0.30452 v 0 l 1,-0.30427 v 0 l 1,-0.30403 v 0 l 1,-0.30377 v 0 l 1,-0.30353 v 0 l 1,-0.30327 v 0 l 1,-0.30303 v 0 l 1,-0.30278 v 0 l 1,-0.30254 v 0 l 1,-0.30229 v 0 l 1,-0.30204 v 0 l 1,-0.3018 v 0 l 1,-0.30156 v 0 l 1,-0.30131 v 0 l 1,-0.30107 v 0 l 1,-0.30082 v 0 l 1,-0.30059 v 0 l 1,-0.30034 v 0 l 1,-0.3001 v 0 l 1,-0.29987 v 0 l 1,-0.29962 v 0 l 1,-0.29938 v 0 l 1,-0.29915 v 0 l 1,-0.29891 v 0 l 1,-0.29867 v 0 l 1,-0.29843 v 0 l 1,-0.2982 v 0 l 1,-0.29796 v 0 l 1,-0.29773 v 0 l 1,-0.29749 v 0 l 1,-0.29726 v 0 l 1,-0.29703 v 0 l 1,-0.29679 v 0 l 1,-0.29656 v 0 l 1,-0.29633 v 0 l 1,-0.2961 v 0 l 1,-0.29587 v 0 l 1,-0.29564 v 0 l 1,-0.2954 v 0 l 1,-0.29518 v 0 l 1,-0.29495 v 0 l 1,-0.29473 v 0 l 1,-0.29449 v 0 l 1,-0.29427 v 0 l 1,-0.29404 v 0 l 1,-0.29382 v 0 l 1,-0.29359 v 0 l 1,-0.29337 v 0 l 1,-0.29314 v 0 l 1,-0.29292 v 0 l 1,-0.29269 v 0 l 1,-0.29247 v 0 l 1,-0.29225 v 0 l 1,-0.29203 v 0 l 1,-0.29181 v 0 l 1,-0.29159 v 0 l 1,-0.29136 v 0 l 1,-0.29115 v 0 l 1,-0.29093 v 0 l 1,-0.29071 v 0 l 1,-0.29049 v 0 l 1,-0.29027 v 0 l 1,-0.29005 v 0 l 1,-0.28984 v 0 l 1,-0.28963 v 0 l 1,-0.2894 v 0 l 1,-0.28919 v 0 l 1,-0.28898 v 0 l 1,-0.28876 v 0 l 1,-0.28855 v 0 l 1,-0.28834 v 0 l 1,-0.28812 v 0 l 1,-0.28791 v 0 l 1,-0.28769 v 0 l 1,-0.28749 v 0 l 1,-0.28728 v 0 l 1,-0.28706 v 0 l 1,-0.28685 v 0 l 1,-0.28665 v 0 l 1,-0.28643 v 0 l 1,-0.28623 v 0 l 1,-0.28602 v 0 l 1,-0.28581 v 0 l 1,-0.2856 v 0 l 1,-0.2854 v 0 l 1,-0.28519 v 0 l 1,-0.28498 v 0 l 1,-0.28478 v 0 l 1,-0.28457 v 0 l 1,-0.28437 v 0 l 1,-0.28417 v 0 l 1,-0.28396 v 0 l 1,-0.28375 v 0 l 1,-0.28356 v 0 l 1,-0.28335 v 0 l 1,-0.28315 v 0 l 1,-0.28294 v 0 l 1,-0.28275 v 0 l 1,-0.28255 v 0 l 1,-0.28234 v 0 l 1,-0.28215 v 0 l 1,-0.28194 v 0 l 1,-0.28175 v 0 l 1,-0.28155 v 0 l 1,-0.28135 v 0 l 1,-0.28115 v 0 l 1,-0.28095 v 0 l 1,-0.28076 v 0 l 1,-0.28056 v 0 l 1,-0.28036 v 0 l 1,-0.28017 v 0 l 1,-0.27998 v 0 l 1,-0.27978 v 0 l 1,-0.27958 v 0 l 1,-0.27939 v 0 l 1,-0.2792 v 0 l 1,-0.279 v 0 l 1,-0.27881 v 0 l 1,-0.27862 v 0 l 1,-0.27842 v 0 l 1,-0.27823 v 0 l 1,-0.27805 v 0 l 1,-0.27785 v 0 l 1,-0.27766 v 0 l 1,-0.27747 v 0 l 1,-0.27728 v 0 l 1,-0.27709 v 0 l 1,-0.2769 v 0 l 1,-0.27672 v 0 l 1,-0.27652 v 0 l 1,-0.27634 v 0 l 1,-0.27615 v 0 l 1,-0.27596 v 0 l 1,-0.27578 v 0 l 1,-0.27559 v 0 l 1,-0.2754 v 0 l 1,-0.27522 v 0 l 1,-0.27504 v 0 l 1,-0.27484 v 0 l 1,-0.27467 v 0 l 1,-0.27448 v 0 l 1,-0.2743 v 0 l 1,-0.27411 v 0 l 1,-0.27393 v 0 l 1,-0.27375 v 0 l 1,-0.27356 v 0 l 1,-0.27338 v 0 l 1,-0.27321 v 0 l 1,-0.27302 v 0 l 1,-0.27284 v 0 l 1,-0.27266 v 0 l 1,-0.27248 v 0 l 1,-0.2723 v 0 l 1,-0.27212 v 0 l 1,-0.27194 v 0 l 1,-0.27176 v 0 l 1,-0.27158 v 0 l 1,-0.27141 v 0 l 1,-0.27123 v 0 l 1,-0.27105 v 0 l 1,-0.27088 v 0 l 1,-0.27069 v 0 l 1,-0.27053 v 0 l 1,-0.27034 v 0 l 1,-0.27017 v 0 l 1,-0.27 v 0 l 1,-0.26982 v 0 l 1,-0.26964 v 0 l 1,-0.26948 v 0 l 1,-0.26929 v 0 l 1,-0.26913 v 0 l 1,-0.26895 v 0 l 1,-0.26878 v 0 l 1,-0.2686 v 0 l 1,-0.26844 v 0 l 1,-0.26826 v 0 l 1,-0.26809 v 0 l 1,-0.26792 v 0 l 1,-0.26775 v 0 l 1,-0.26757 v 0 l 1,-0.26741 v 0 l 1,-0.26724 v 0 l 1,-0.26707 v 0 l 1,-0.2669 v 0 l 1,-0.26673 v 0 l 1,-0.26656 v 0 l 1,-0.26639 v 0 l 1,-0.26623 v 0 l 1,-0.26605 v 0 l 1,-0.2659 v 0 l 1,-0.26572 v 0 l 1,-0.26556 v 0 l 1,-0.26539 v 0 l 1,-0.26522 v 0 l 1,-0.26506 v 0 l 1,-0.26489 v 0 l 1,-0.26473 v 0 l 1,-0.26456 v 0 l 1,-0.2644 v 0 l 1,-0.26423 v 0 l 1,-0.26408 v 0 l 1,-0.2639 v 0 l 1,-0.26375 v 0 l 1,-0.26358 v 0 l 1,-0.26341 v 0 l 1,-0.26326 v 0 l 1,-0.26309 v 0 l 1,-0.26293 v 0 l 1,-0.26277 v 0 l 1,-0.26261 v 0 l 1,-0.26245 v 0 l 1,-0.26229 v 0 l 1,-0.26213 v 0 l 1,-0.26196 v 0 l 1,-0.26181 v 0 l 1,-0.26165 v 0 l 1,-0.26149 v 0 l 1,-0.26133 v 0 l 1,-0.26117 v 0 l 1,-0.26101 v 0 l 1,-0.26086 v 0 l 1,-0.26069 v 0 l 1,-0.26054 v 0 l 1,-0.26039 v 0 l 1,-0.26022 v 0 l 1,-0.26007 v 0 l 1,-0.25992 v 0 l 1,-0.25975 v 0 l 1,-0.2596 v 0 l 1,-0.25945 v 0 l 1,-0.25929 v 0 l 1,-0.25914 v 0 l 1,-0.25898 v 0 l 1,-0.25883 v 0 l 1,-0.25867 v 0 l 1,-0.25852 v 0 l 1,-0.25836 v 0 l 1,-0.25822 v 0 l 1,-0.25806 v 0 l 1,-0.2579 v 0 l 1,-0.25776 v 0 l 1,-0.2576 v 0 l 1,-0.25745 v 0 l 1,-0.2573 v 0 l 1,-0.25715 v 0 l 1,-0.25699 v 0 l 1,-0.25685 v 0 l 1,-0.25669 v 0 l 1,-0.25655 v 0 l 1,-0.25639 v 0 l 1,-0.25625 v 0 l 1,-0.25609 v 0 l 1,-0.25595 v 0 l 1,-0.2558 v 0 l 1,-0.25565 v 0 l 1,-0.2555 v 0 l 1,-0.25535 v 0 l 1,-0.2552 v 0 l 1,-0.25506 v 0 l 1,-0.25491 v 0 l 1,-0.25476 v 0 l 1,-0.25461 v 0 l 1,-0.25447 v 0 l 1,-0.25432 v 0 l 1,-0.25418 v 0 l 1,-0.25403 v 0 l 1,-0.25388 v 0 l 1,-0.25374 v 0 l 1,-0.2536 v 0 l 1,-0.25345 v 0 l 1,-0.2533 v 0 l 1,-0.25316 v 0 l 1,-0.25301 v 0 l 1,-0.25288 v 0 l 1,-0.25272 v 0 l 1,-0.25259 v 0 l 1,-0.25244 v 0 l 1,-0.2523 v 0 l 1,-0.25215 v 0 l 1,-0.25202 v 0 l 1,-0.25187 v 0 l 1,-0.25173 v 0 l 1,-0.25158 v 0 l 1,-0.25145 v 0 l 1,-0.2513 v 0 l 1,-0.25117 v 0 l 1,-0.25102 v 0 l 1,-0.25088 v 0 l 1,-0.25075 v 0 l 1,-0.2506 v 0 l 1,-0.25046 v 0 l 1,-0.25032 v 0 l 1,-0.25019 v 0 l 1,-0.25004 v 0 l 1,-0.2499 v 0 l 1,-0.24977 v 0 l 1,-0.24963 v 0 l 1,-0.24949 v 0 l 1,-0.24935 v 0 l 1,-0.24921 v 0 l 1,-0.24908 v 0 l 1,-0.24894 v 0 l 1,-0.2488 v 0 l 1,-0.24867 v 0 l 1,-0.24853 v 0 l 1,-0.24839 v 0 l 1,-0.24825 v 0 l 1,-0.24812 v 0 l 1,-0.24799 v 0 l 1,-0.24785 v 0 l 1,-0.24771 v 0 l 1,-0.24758 v 0 l 1,-0.24744 v 0 l 1,-0.24731 v 0 l 1,-0.24718 v 0 l 1,-0.24704 v 0 l 1,-0.24691 v 0 l 1,-0.24677 v 0 l 1,-0.24664 v 0 l 1,-0.2465 v 0 l 1,-0.24638 v 0 l 1,-0.24624 v 0 l 1,-0.2461 v 0 l 1,-0.24598 v 0 l 1,-0.24584 v 0 l 1,-0.24571 v 0 l 1,-0.24558 v 0 l 1,-0.24545 v 0 l 1,-0.24531 v 0 l 1,-0.24519 v 0 l 1,-0.24505 v 0 l 1,-0.24493 v 0 l 1,-0.24479 v 0 l 1,-0.24466 v 0 l 1,-0.24453 v 0 l 1,-0.24441 v 0 l 1,-0.24427 v 0 l 1,-0.24414 v 0 l 1,-0.24401 v 0 l 1,-0.24389 v 0 l 1,-0.24375 v 0 l 1,-0.24363 v 0 l 1,-0.2435 v 0 l 1,-0.24337 v 0 l 1,-0.24324 v 0 l 1,-0.24312 v 0 l 1,-0.24298 v 0 l 1,-0.24286 v 0 l 1,-0.24273 v 0 l 1,-0.24261 v 0 l 1,-0.24248 v 0 l 1,-0.24235 v 0 l 1,-0.24222 v 0 l 1,-0.2421 v 0 l 1,-0.24197 v 0 l 1,-0.24185 v 0 l 1,-0.24172 v 0 l 1,-0.24159 v 0 l 1,-0.24147 v 0 l 1,-0.24135 v 0 l 1,-0.24122 v 0 l 1,-0.24109 v 0 l 1,-0.24097 v 0 l 1,-0.24085 v 0 l 1,-0.24072 v 0 l 1,-0.2406 v 0 l 1,-0.24048 v 0 l 1,-0.24035 v 0 l 1,-0.24022 v 0 l 1,-0.24011 v 0 l 1,-0.23998 v 0 l 1,-0.23986 v 0 l 1,-0.23973 v 0 l 1,-0.23962 v 0 l 1,-0.23949 v 0 l 1,-0.23937 v 0 l 1,-0.23925 v 0 l 1,-0.23912 v 0 l 1,-0.23901 v 0 l 1,-0.23888 v 0 l 1,-0.23876 v 0 l 1,-0.23864 v 0 l 1,-0.23852 v 0 l 1,-0.2384 v 0 l 1,-0.23828 v 0 l 1,-0.23816 v 0 l 1,-0.23804 v 0 l 1,-0.23792 v 0 l 1,-0.23779 v 0 l 1,-0.23768 v 0 l 1,-0.23757 v 0 l 1,-0.23744 v 0 l 1,-0.23732 v 0 l 1,-0.2372 v 0 l 1,-0.23709 v 0 l 1,-0.23696 v 0 l 1,-0.23685 v 0 l 1,-0.23673 v 0 l 1,-0.23662 v 0 l 1,-0.23649 v 0 l 1,-0.23638 v 0 l 1,-0.23626 v 0 l 1,-0.23614 v 0 l 1,-0.23603 v 0 l 1,-0.2359 v 0 l 1,-0.2358 v 0 l 1,-0.23567 v 0 l 1,-0.23556 v 0 l 1,-0.23544 v 0 l 1,-0.23533 v 0 l 1,-0.23521 v 0 l 1,-0.2351 v 0 l 1,-0.234979 v 0 l 1,-0.234865 v 0 l 1,-0.23475 v 0 l 1,-0.234635 v 0 l 1,-0.23452 v 0 l 1,-0.234406 v 0 l 1,-0.234291 v 0 l 1,-0.234176 v 0 l 1,-0.234063 v 0 l 1,-0.233949 v 0 l 1,-0.233835 v 0 l 1,-0.233721 v 0 l 1,-0.233608 v 0 l 1,-0.233495 v 0 l 1,-0.233381 v 0 l 1,-0.233269 v 0 l 1,-0.233156 v 0 l 1,-0.233043 v 0 l 1,-0.232931 v 0 l 1,-0.232818 v 0 l 1,-0.232706 v 0 l 1,-0.232594 v 0 l 1,-0.232483 v 0 l 1,-0.232371 v 0 l 1,-0.232259 v 0 l 1,-0.232148 v 0 l 1,-0.232037 v 0 l 1,-0.231925 v 0 l 1,-0.231815 v 0 l 1,-0.231705 v 0 l 1,-0.231593 v 0 l 1,-0.231483 v 0 l 1,-0.231374 v 0 l 1,-0.231263 v 0 l 1,-0.231153 v 0 l 1,-0.231043 v 0 l 1,-0.230934 v 0 l 1,-0.230824 v 0 l 1,-0.230715 v 0 l 1,-0.230606 v 0 l 1,-0.230497 v 0 l 1,-0.230388 v 0 l 1,-0.23028 v 0 l 1,-0.23017 v 0 l 1,-0.230063 v 0 l 1,-0.229954 v 0 l 1,-0.229847 v 0 l 1,-0.229738 v 0 l 1,-0.229631 v 0 l 1,-0.229523 v 0 l 1,-0.229415 v 0 l 1,-0.229309 v 0 l 1,-0.229201 v 0 l 1,-0.229094 v 0 l 1,-0.228987 v 0 l 1,-0.228881 v 0 l 1,-0.228774 v 0 l 1,-0.228668 v 0 l 1,-0.228561"
               stroke-opacity="0.8"
               stroke-linecap="round"
               stroke-linejoin="round"
               stroke-miterlimit="10"
               stroke-width="2.5"
               id="path5534"
               style="stroke-width:31.4528;stroke-dasharray:none"
               transform="matrix(0.01271745,0,0,0.01271745,44.004188,42.633096)" /><path
               fill="none"
               stroke="#d32f2f"
               paint-order="fill stroke markers"
               d="m 1,610.29222 v 0.60208 -0.60208 l 1,-0.59839 v 0 l 1,-0.59475 v 0 l 1,-0.59115 v 0 l 1,-0.5876 v 0 l 1,-0.58408 v 0 l 1,-0.58061 v 0 l 1,-0.57718 v 0 l 1,-0.57379 v 0 l 1,-0.57043 v 0 l 1,-0.56713 v 0 l 1,-0.56385 v 0 l 1,-0.56061 v 0 l 1,-0.55742 v 0 l 1,-0.55425 v 0 l 1,-0.55113 v 0 l 1,-0.54803 v 0 l 1,-0.54497 v 0 l 1,-0.54196 v 0 l 1,-0.53896 v 0 l 1,-0.536 v 0 l 1,-0.53308 v 0 l 1,-0.53018 v 0 l 1,-0.52733 v 0 l 1,-0.52449 v 0 l 1,-0.52169 v 0 l 1,-0.51891 v 0 l 1,-0.51618 v 0 l 1,-0.51346 v 0 l 1,-0.51078 v 0 l 1,-0.50812 v 0 l 1,-0.50549 v 0 l 1,-0.50289 v 0 l 1,-0.50031 v 0 l 1,-0.49777 v 0 l 1,-0.49523 v 0 l 1,-0.49275 v 0 l 1,-0.49026 v 0 l 1,-0.48782 v 0 l 1,-0.4854 v 0 l 1,-0.48299 v 0 l 1,-0.48062 v 0 l 1,-0.47827 v 0 l 1,-0.47593 v 0 l 1,-0.47363 v 0 l 1,-0.47134 v 0 l 1,-0.46908 v 0 l 1,-0.46683 v 0 l 1,-0.46462 v 0 l 1,-0.46241 v 0 l 1,-0.46024 v 0 l 1,-0.45808 v 0 l 1,-0.45594 v 0 l 1,-0.45382 v 0 l 1,-0.45172 v 0 l 1,-0.44965 v 0 l 1,-0.44758 v 0 l 1,-0.44554 v 0 l 1,-0.44352 v 0 l 1,-0.44151 v 0 l 1,-0.43953 v 0 l 1,-0.43756 v 0 l 1,-0.43561 v 0 l 1,-0.43367 v 0 l 1,-0.43175 v 0 l 1,-0.42986 v 0 l 1,-0.42797 v 0 l 1,-0.42611 v 0 l 1,-0.42425 v 0 l 1,-0.42242 v 0 l 1,-0.4206 v 0 l 1,-0.4188 v 0 l 1,-0.41701 v 0 l 1,-0.41524 v 0 l 1,-0.41348 v 0 l 1,-0.41173 v 0 l 1,-0.41001 v 0 l 1,-0.40829 v 0 l 1,-0.4066 v 0 l 1,-0.40491 v 0 l 1,-0.40324 v 0 l 1,-0.40158 v 0 l 1,-0.39993 v 0 l 1,-0.3983 v 0 l 1,-0.39669 v 0 l 1,-0.39508 v 0 l 1,-0.39349 v 0 l 1,-0.39192 v 0 l 1,-0.39034 v 0 l 1,-0.38879 v 0 l 1,-0.38725 v 0 l 1,-0.38573 v 0 l 1,-0.3842 v 0 l 1,-0.3827 v 0 l 1,-0.3812 v 0 l 1,-0.37973 v 0 l 1,-0.37825 v 0 l 1,-0.37679 v 0 l 1,-0.37535 v 0 l 1,-0.37391 v 0 l 1,-0.37248 v 0 l 1,-0.37107 v 0 l 1,-0.36966 v 0 l 1,-0.36827 v 0 l 1,-0.36689 v 0 l 1,-0.36551 v 0 l 1,-0.36416 v 0 l 1,-0.36279 v 0 l 1,-0.36146 v 0 l 1,-0.36012 v 0 l 1,-0.3588 v 0 l 1,-0.35749 v 0 l 1,-0.35618 v 0 l 1,-0.35489 v 0 l 1,-0.35361 v 0 l 1,-0.35233 v 0 l 1,-0.35106 v 0 l 1,-0.34981 v 0 l 1,-0.34856 v 0 l 1,-0.34731 v 0 l 1,-0.34609 v 0 l 1,-0.34487 v 0 l 1,-0.34365 v 0 l 1,-0.34245 v 0 l 1,-0.34125 v 0 l 1,-0.34006 v 0 l 1,-0.33888 v 0 l 1,-0.33772 v 0 l 1,-0.33654 v 0 l 1,-0.3354 v 0 l 1,-0.33424 v 0 l 1,-0.33311 v 0 l 1,-0.33197 v 0 l 1,-0.33085 v 0 l 1,-0.32973 v 0 l 1,-0.32862 v 0 l 1,-0.32752 v 0 l 1,-0.32643 v 0 l 1,-0.32533 v 0 l 1,-0.32426 v 0 l 1,-0.32319 v 0 l 1,-0.32212 v 0 l 1,-0.32106 v 0 l 1,-0.32001 v 0 l 1,-0.31896 v 0 l 1,-0.31793 v 0 l 1,-0.31689 v 0 l 1,-0.31587 v 0 l 1,-0.31485 v 0 l 1,-0.31384 v 0 l 1,-0.31284 v 0 l 1,-0.31183 v 0 l 1,-0.31085 v 0 l 1,-0.30985 v 0 l 1,-0.30888 v 0 l 1,-0.3079 v 0 l 1,-0.30694 v 0 l 1,-0.30598 v 0 l 1,-0.30502 v 0 l 1,-0.30407 v 0 l 1,-0.30312 v 0 l 1,-0.30219 v 0 l 1,-0.30126 v 0 l 1,-0.30033 v 0 l 1,-0.29941 v 0 l 1,-0.29849 v 0 l 1,-0.29759 v 0 l 1,-0.29668 v 0 l 1,-0.29578 v 0 l 1,-0.29489 v 0 l 1,-0.294 v 0 l 1,-0.29312 v 0 l 1,-0.29225 v 0 l 1,-0.29137 v 0 l 1,-0.2905 v 0 l 1,-0.28965 v 0 l 1,-0.28878 v 0 l 1,-0.28794 v 0 l 1,-0.28709 v 0 l 1,-0.28625 v 0 l 1,-0.28541 v 0 l 1,-0.28458 v 0 l 1,-0.28375 v 0 l 1,-0.28293 v 0 l 1,-0.28212 v 0 l 1,-0.2813 v 0 l 1,-0.28049 v 0 l 1,-0.27969 v 0 l 1,-0.2789 v 0 l 1,-0.27809 v 0 l 1,-0.27731 v 0 l 1,-0.27653 v 0 l 1,-0.27574 v 0 l 1,-0.27497 v 0 l 1,-0.27419 v 0 l 1,-0.27343 v 0 l 1,-0.27266 v 0 l 1,-0.27191 v 0 l 1,-0.27115 v 0 l 1,-0.2704 v 0 l 1,-0.26965 v 0 l 1,-0.26891 v 0 l 1,-0.26817 v 0 l 1,-0.26744 v 0 l 1,-0.26671 v 0 l 1,-0.26598 v 0 l 1,-0.26526 v 0 l 1,-0.26454 v 0 l 1,-0.26383 v 0 l 1,-0.26311 v 0 l 1,-0.26241 v 0 l 1,-0.26171 v 0 l 1,-0.261 v 0 l 1,-0.26032 v 0 l 1,-0.25961 v 0 l 1,-0.25894 v 0 l 1,-0.25824 v 0 l 1,-0.25757 v 0 l 1,-0.25688 v 0 l 1,-0.25622 v 0 l 1,-0.25554 v 0 l 1,-0.25488 v 0 l 1,-0.25421 v 0 l 1,-0.25356 v 0 l 1,-0.25289 v 0 l 1,-0.25225 v 0 l 1,-0.25159 v 0 l 1,-0.25095 v 0 l 1,-0.25031 v 0 l 1,-0.24966 v 0 l 1,-0.24903 v 0 l 1,-0.24839 v 0 l 1,-0.24777 v 0 l 1,-0.24714 v 0 l 1,-0.24651 v 0 l 1,-0.2459 v 0 l 1,-0.24527 v 0 l 1,-0.24467 v 0 l 1,-0.24405 v 0 l 1,-0.24344 v 0 l 1,-0.24284 v 0 l 1,-0.24223 v 0 l 1,-0.24164 v 0 l 1,-0.24104 v 0 l 1,-0.24044 v 0 l 1,-0.23986 v 0 l 1,-0.23927 v 0 l 1,-0.23868 v 0 l 1,-0.2381 v 0 l 1,-0.23753 v 0 l 1,-0.23694 v 0 l 1,-0.23638 v 0 l 1,-0.2358 v 0 l 1,-0.23523 v 0 l 1,-0.23467 v 0 l 1,-0.23411 v 0 l 1,-0.23355 v 0 l 1,-0.23299 v 0 l 1,-0.23243 v 0 l 1,-0.23189 v 0 l 1,-0.23133 v 0 l 1,-0.23079 v 0 l 1,-0.23025 v 0 l 1,-0.2297 v 0 l 1,-0.22916 v 0 l 1,-0.22863 v 0 l 1,-0.22809 v 0 l 1,-0.22757 v 0 l 1,-0.22703 v 0 l 1,-0.22651 v 0 l 1,-0.22598 v 0 l 1,-0.22546 v 0 l 1,-0.22494 v 0 l 1,-0.22443 v 0 l 1,-0.22391 v 0 l 1,-0.2234 v 0 l 1,-0.22288 v 0 l 1,-0.22239 v 0 l 1,-0.22187 v 0 l 1,-0.22138 v 0 l 1,-0.22087 v 0 l 1,-0.22037 v 0 l 1,-0.21988 v 0 l 1,-0.21939 v 0 l 1,-0.21889 v 0 l 1,-0.2184 v 0 l 1,-0.21792 v 0 l 1,-0.21743 v 0 l 1,-0.21695 v 0 l 1,-0.21646 v 0 l 1,-0.21599 v 0 l 1,-0.21552 v 0 l 1,-0.21503 v 0 l 1,-0.21457 v 0 l 1,-0.21409 v 0 l 1,-0.21363 v 0 l 1,-0.21316 v 0 l 1,-0.2127 v 0 l 1,-0.21223 v 0 l 1,-0.21178 v 0 l 1,-0.21131 v 0 l 1,-0.21086 v 0 l 1,-0.21041 v 0 l 1,-0.20995 v 0 l 1,-0.2095 v 0 l 1,-0.20906 v 0 l 1,-0.20861 v 0 l 1,-0.20816 v 0 l 1,-0.20772 v 0 l 1,-0.20728 v 0 l 1,-0.20684 v 0 l 1,-0.20641 v 0 l 1,-0.20596 v 0 l 1,-0.20554 v 0 l 1,-0.2051 v 0 l 1,-0.20468 v 0 l 1,-0.20424 v 0 l 1,-0.20382 v 0 l 1,-0.2034 v 0 l 1,-0.20297 v 0 l 1,-0.20255 v 0 l 1,-0.20214 v 0 l 1,-0.20171 v 0 l 1,-0.2013 v 0 l 1,-0.20089 v 0 l 1,-0.20047 v 0 l 1,-0.20006 v 0 l 1,-0.19966 v 0 l 1,-0.19924 v 0 l 1,-0.19884 v 0 l 1,-0.19844 v 0 l 1,-0.19804 v 0 l 1,-0.19763 v 0 l 1,-0.19723 v 0 l 1,-0.19684 v 0 l 1,-0.19644 v 0 l 1,-0.19605 v 0 l 1,-0.19566 v 0 l 1,-0.19526 v 0 l 1,-0.19487 v 0 l 1,-0.19449 v 0 l 1,-0.1941 v 0 l 1,-0.19371 v 0 l 1,-0.19333 v 0 l 1,-0.19295 v 0 l 1,-0.19257 v 0 l 1,-0.19219 v 0 l 1,-0.19181 v 0 l 1,-0.19144 v 0 l 1,-0.19106 v 0 l 1,-0.19069 v 0 l 1,-0.19032 v 0 l 1,-0.18995 v 0 l 1,-0.18957 v 0 l 1,-0.18922 v 0 l 1,-0.18884 v 0 l 1,-0.18848 v 0 l 1,-0.18812 v 0 l 1,-0.18776 v 0 l 1,-0.18739 v 0 l 1,-0.18704 v 0 l 1,-0.18668 v 0 l 1,-0.18633 v 0 l 1,-0.18596 v 0 l 1,-0.18562 v 0 l 1,-0.18526 v 0 l 1,-0.18492 v 0 l 1,-0.18456 v 0 l 1,-0.18422 v 0 l 1,-0.18387 v 0 l 1,-0.18352 v 0 l 1,-0.18318 v 0 l 1,-0.18283 v 0 l 1,-0.1825 v 0 l 1,-0.18215 v 0 l 1,-0.18182 v 0 l 1,-0.18148 v 0 l 1,-0.18114 v 0 l 1,-0.1808 v 0 l 1,-0.18047 v 0 l 1,-0.18014 v 0 l 1,-0.17981 v 0 l 1,-0.17948 v 0 l 1,-0.17914 v 0 l 1,-0.17882 v 0 l 1,-0.1785 v 0 l 1,-0.17816 v 0 l 1,-0.17785 v 0 l 1,-0.17752 v 0 l 1,-0.17719 v 0 l 1,-0.17688 v 0 l 1,-0.17656 v 0 l 1,-0.17624 v 0 l 1,-0.17592 v 0 l 1,-0.1756 v 0 l 1,-0.17529 v 0 l 1,-0.17498 v 0 l 1,-0.17466 v 0 l 1,-0.17435 v 0 l 1,-0.17404 v 0 l 1,-0.17373 v 0 l 1,-0.17343 v 0 l 1,-0.17311 v 0 l 1,-0.17281 v 0 l 1,-0.1725 v 0 l 1,-0.1722 v 0 l 1,-0.1719 v 0 l 1,-0.17159 v 0 l 1,-0.1713 v 0 l 1,-0.17099 v 0 l 1,-0.17069 v 0 l 1,-0.1704 v 0 l 1,-0.1701 v 0 l 1,-0.16981 v 0 l 1,-0.16951 v 0 l 1,-0.16921 v 0 l 1,-0.16893 v 0 l 1,-0.16863 v 0 l 1,-0.16834 v 0 l 1,-0.16805 v 0 l 1,-0.16776 v 0 l 1,-0.16748 v 0 l 1,-0.16719 v 0 l 1,-0.1669 v 0 l 1,-0.16662 v 0 l 1,-0.16633 v 0 l 1,-0.16606 v 0 l 1,-0.16577 v 0 l 1,-0.16549 v 0 l 1,-0.1652 v 0 l 1,-0.16493 v 0 l 1,-0.16466 v 0 l 1,-0.16437 v 0 l 1,-0.1641 v 0 l 1,-0.16383 v 0 l 1,-0.16354 v 0 l 1,-0.16328 v 0 l 1,-0.163 v 0 l 1,-0.16274 v 0 l 1,-0.16246 v 0 l 1,-0.16219 v 0 l 1,-0.16192 v 0 l 1,-0.16166 v 0 l 1,-0.16139 v 0 l 1,-0.16112 v 0 l 1,-0.16085 v 0 l 1,-0.16059 v 0 l 1,-0.16033 v 0 l 1,-0.16007 v 0 l 1,-0.1598 v 0 l 1,-0.15954 v 0 l 1,-0.15929 v 0 l 1,-0.15902 v 0 l 1,-0.15876 v 0 l 1,-0.15851 v 0 l 1,-0.15825 v 0 l 1,-0.15799 v 0 l 1,-0.15774 v 0 l 1,-0.15749 v 0 l 1,-0.15723 v 0 l 1,-0.15698 v 0 l 1,-0.15672 v 0 l 1,-0.15648 v 0 l 1,-0.15623 v 0 l 1,-0.15597 v 0 l 1,-0.15573 v 0 l 1,-0.15548 v 0 l 1,-0.15523 v 0 l 1,-0.15499 v 0 l 1,-0.15474 v 0 l 1,-0.15449 v 0 l 1,-0.15425 v 0 l 1,-0.15401 v 0 l 1,-0.15377 v 0 l 1,-0.15352 v 0 l 1,-0.15328 v 0 l 1,-0.15305 v 0 l 1,-0.1528 v 0 l 1,-0.15257 v 0 l 1,-0.15232 v 0 l 1,-0.15209 v 0 l 1,-0.15186 v 0 l 1,-0.15161 v 0 l 1,-0.15139 v 0 l 1,-0.15115 v 0 l 1,-0.15091 v 0 l 1,-0.15068 v 0 l 1,-0.15045 v 0 l 1,-0.15022 v 0 l 1,-0.14999 v 0 l 1,-0.14976 v 0 l 1,-0.14953 v 0 l 1,-0.1493 v 0 l 1,-0.14907 v 0 l 1,-0.14884 v 0 l 1,-0.14862 v 0 l 1,-0.1484 v 0 l 1,-0.14816 v 0 l 1,-0.14795 v 0 l 1,-0.14772 v 0 l 1,-0.14749 v 0 l 1,-0.14728 v 0 l 1,-0.14705 v 0 l 1,-0.14683 v 0 l 1,-0.14661 v 0 l 1,-0.1464 v 0 l 1,-0.14617 v 0 l 1,-0.14595 v 0 l 1,-0.14574 v 0 l 1,-0.14552 v 0 l 1,-0.1453 v 0 l 1,-0.14509 v 0 l 1,-0.14487 v 0 l 1,-0.14465 v 0 l 1,-0.14445 v 0 l 1,-0.14423 v 0 l 1,-0.14401 v 0 l 1,-0.14381 v 0 l 1,-0.14359 v 0 l 1,-0.14339 v 0 l 1,-0.14317 v 0 l 1,-0.14296 v 0 l 1,-0.14276 v 0 l 1,-0.14254 v 0 l 1,-0.14234 v 0 l 1,-0.14213 v 0 l 1,-0.14193 v 0 l 1,-0.14171 v 0 l 1,-0.14152 v 0 l 1,-0.14131 v 0 l 1,-0.1411 v 0 l 1,-0.1409 v 0 l 1,-0.1407 v 0 l 1,-0.1405 v 0 l 1,-0.14029 v 0 l 1,-0.14009 v 0 l 1,-0.13989 v 0 l 1,-0.1397 v 0 l 1,-0.13949 v 0 l 1,-0.13929 v 0 l 1,-0.1391 v 0 l 1,-0.13889 v 0 l 1,-0.1387 v 0 l 1,-0.13851 v 0 l 1,-0.1383 v 0 l 1,-0.13812 v 0 l 1,-0.13791 v 0 l 1,-0.13773 v 0 l 1,-0.13752 v 0 l 1,-0.13734 v 0 l 1,-0.13714 v 0 l 1,-0.13695 v 0 l 1,-0.13676 v 0 l 1,-0.13657 v 0 l 1,-0.13637 v 0 l 1,-0.13619 v 0 l 1,-0.13599 v 0 l 1,-0.13581 v 0 l 1,-0.13562 v 0 l 1,-0.13543 v 0 l 1,-0.13524 v 0 l 1,-0.13506 v 0 l 1,-0.13487 v 0 l 1,-0.13468 v 0 l 1,-0.1345 v 0 l 1,-0.13432 v 0 l 1,-0.13413 v 0 l 1,-0.13394 v 0 l 1,-0.13376 v 0 l 1,-0.13358 v 0 l 1,-0.1334 v 0 l 1,-0.13321 v 0 l 1,-0.13303 v 0 l 1,-0.13286 v 0 l 1,-0.13267 v 0 l 1,-0.13249 v 0 l 1,-0.13231 v 0 l 1,-0.13213 v 0 l 1,-0.13196 v 0 l 1,-0.13178 v 0 l 1,-0.13159 v 0 l 1,-0.13143 v 0 l 1,-0.13124 v 0 l 1,-0.13107 v 0 l 1,-0.1309 v 0 l 1,-0.13071 v 0 l 1,-0.13055 v 0 l 1,-0.13037 v 0 l 1,-0.13019 v 0 l 1,-0.13003 v 0 l 1,-0.12984 v 0 l 1,-0.12968 v 0 l 1,-0.12951 v 0 l 1,-0.12933 v 0 l 1,-0.12916 v 0 l 1,-0.129 v 0 l 1,-0.12882 v 0 l 1,-0.12865 v 0 l 1,-0.12848 v 0 l 1,-0.12832 v 0 l 1,-0.12814 v 0 l 1,-0.12798 v 0 l 1,-0.12781 v 0 l 1,-0.12765 v 0 l 1,-0.12747 v 0 l 1,-0.12731 v 0 l 1,-0.12715 v 0 l 1,-0.12698 v 0 l 1,-0.12681 v 0 l 1,-0.12666 v 0 l 1,-0.12648 v 0 l 1,-0.12633 v 0 l 1,-0.12616 v 0 l 1,-0.12599 v 0 l 1,-0.12584 v 0 l 1,-0.12567 v 0 l 1,-0.12551 v 0 l 1,-0.12535 v 0 l 1,-0.12519 v 0 l 1,-0.12503 v 0 l 1,-0.12487 v 0 l 1,-0.12471 v 0 l 1,-0.12455 v 0 l 1,-0.12439 v 0 l 1,-0.12424 v 0 l 1,-0.12408 v 0 l 1,-0.12391 v 0 l 1,-0.12377 v 0 l 1,-0.1236 v 0 l 1,-0.12345 v 0 l 1,-0.1233 v 0 l 1,-0.12313 v 0 l 1,-0.12299 v 0 l 1,-0.12282 v 0 l 1,-0.12268 v 0 l 1,-0.12252 v 0 l 1,-0.12237 v 0 l 1,-0.12221 v 0 l 1,-0.12206 v 0 l 1,-0.12191 v 0 l 1,-0.12176 v 0 l 1,-0.1216 v 0 l 1,-0.12145 v 0 l 1,-0.12131 v 0 l 1,-0.12115 v 0 l 1,-0.121 v 0 l 1,-0.12085 v 0 l 1,-0.12071 v 0 l 1,-0.12055 v 0 l 1,-0.12041 v 0 l 1,-0.12026 v 0 l 1,-0.12011 v 0 l 1,-0.11996 v 0 l 1,-0.11981 v 0 l 1,-0.11967 v 0 l 1,-0.11952 v 0 l 1,-0.11938 v 0 l 1,-0.11923 v 0 l 1,-0.11908 v 0 l 1,-0.11894 v 0 l 1,-0.1188 v 0 l 1,-0.11865 v 0 l 1,-0.1185 v 0 l 1,-0.11837 v 0 l 1,-0.11822 v 0 l 1,-0.11807 v 0 l 1,-0.11794 v 0 l 1,-0.11779 v 0 l 1,-0.11765 v 0 l 1,-0.11751 v 0 l 1,-0.11737 v 0 l 1,-0.11722 v 0 l 1,-0.11709 v 0 l 1,-0.11695 v 0 l 1,-0.1168 v 0 l 1,-0.11667 v 0 l 1,-0.11653 v 0 l 1,-0.11639 v 0 l 1,-0.11625 v 0 l 1,-0.11611 v 0 l 1,-0.11597 v 0 l 1,-0.11584 v 0 l 1,-0.1157 v 0 l 1,-0.11556 v 0 l 1,-0.11543 v 0 l 1,-0.11528 v 0 l 1,-0.11516 v 0 l 1,-0.11502 v 0 l 1,-0.11488 v 0 l 1,-0.11475 v 0 l 1,-0.11461 v 0 l 1,-0.11448 v 0 l 1,-0.11434 v 0 l 1,-0.11422 v 0 l 1,-0.11407 v 0 l 1,-0.11395 v 0 l 1,-0.11381 v 0 l 1,-0.11368 v 0 l 1,-0.11355 v 0 l 1,-0.11341 v 0 l 1,-0.11329 v 0 l 1,-0.11315 v 0 l 1,-0.11302 v 0 l 1,-0.11289 v 0 l 1,-0.11276 v 0 l 1,-0.11263 v 0 l 1,-0.1125 v 0 l 1,-0.11238 v 0 l 1,-0.11224 v 0 l 1,-0.11211 v 0 l 1,-0.11199 v 0 l 1,-0.11185 v 0 l 1,-0.11173 v 0 l 1,-0.1116 v 0 l 1,-0.11148 v 0 l 1,-0.11135 v 0 l 1,-0.11122 v 0 l 1,-0.11109 v 0 l 1,-0.11097 v 0 l 1,-0.11084 v 0 l 1,-0.11071 v 0 l 1,-0.11059 v 0 l 1,-0.11047 v 0 l 1,-0.11034 v 0 l 1,-0.11022 v 0 l 1,-0.11009 v 0 l 1,-0.10997 v 0 l 1,-0.10984 v 0 l 1,-0.10972 v 0 l 1,-0.1096 v 0 l 1,-0.10947 v 0 l 1,-0.10936 v 0 l 1,-0.10923 v 0 l 1,-0.1091 v 0 l 1,-0.10899 v 0 l 1,-0.10887 v 0 l 1,-0.10874 v 0 l 1,-0.10862 v 0 l 1,-0.1085 v 0 l 1,-0.10839 v 0 l 1,-0.10826 v 0 l 1,-0.10814 v 0 l 1,-0.10802 v 0 l 1,-0.1079 v 0 l 1,-0.10779 v 0 l 1,-0.10766 v 0 l 1,-0.10755 v 0 l 1,-0.10743 v 0 l 1,-0.10731 v 0 l 1,-0.10719 v 0 l 1,-0.10707 v 0 l 1,-0.10696 v 0 l 1,-0.10684 v 0 l 1,-0.10673 v 0 l 1,-0.1066 v 0 l 1,-0.10649 v 0 l 1,-0.10638 v 0 l 1,-0.10626 v 0 l 1,-0.10614 v 0 l 1,-0.10603 v 0 l 1,-0.10591 v 0 l 1,-0.1058 v 0 l 1,-0.10569 v 0 l 1,-0.10557 v 0 l 1,-0.10546 v 0 l 1,-0.10534 v 0 l 1,-0.10523 v 0 l 1,-0.10511 v 0 l 1,-0.10501 v 0 l 1,-0.10489 v 0 l 1,-0.10477 v 0 l 1,-0.10467 v 0 l 1,-0.10455 v 0 l 1,-0.10444 v 0 l 1,-0.10433 v 0 l 1,-0.10422 v 0 l 1,-0.10411 v 0 l 1,-0.104 v 0 l 1,-0.10388 v 0 l 1,-0.10378 v 0 l 1,-0.10366 v 0 l 1,-0.10356 v 0 l 1,-0.10345 v 0 l 1,-0.10333 v 0 l 1,-0.10323 v 0 l 1,-0.10312 v 0 l 1,-0.10301 v 0 l 1,-0.1029 v 0 l 1,-0.10279 v 0 l 1,-0.10269 v 0 l 1,-0.10257 v 0 l 1,-0.10247 v 0 l 1,-0.10236 v 0 l 1,-0.10226 v 0 l 1,-0.10215 v 0 l 1,-0.10204 v 0 l 1,-0.10193 v 0 l 1,-0.10183 v 0 l 1,-0.10172 v 0 l 1,-0.10162 v 0 l 1,-0.10151 v 0 l 1,-0.10141 v 0 l 1,-0.1013 v 0 l 1,-0.10119 v 0 l 1,-0.10109 v 0 l 1,-0.10099 v 0 l 1,-0.10088 v 0 l 1,-0.10078 v 0 l 1,-0.10067 v 0 l 1,-0.10057 v 0 l 1,-0.10047 v 0 l 1,-0.10036 v 0 l 1,-0.10026 v 0 l 1,-0.10016 v 0 l 1,-0.10006 v 0 l 1,-0.1 v 0 l 1,-0.0998 v 0 l 1,-0.0998 v 0 l 1,-0.0996 v 0 l 1,-0.0995 v 0 l 1,-0.0994 v 0 l 1,-0.0994 v 0 l 1,-0.0992 v 0 l 1,-0.0991 v 0 l 1,-0.099 v 0 l 1,-0.0989 v 0 l 1,-0.0988 v 0 l 1,-0.0987 v 0 l 1,-0.0986 v 0 l 1,-0.0985 v 0 l 1,-0.0984 v 0 l 1,-0.0984 v 0 l 1,-0.0982 v 0 l 1,-0.0982 v 0 l 1,-0.098 v 0 l 1,-0.098 v 0 l 1,-0.0978 v 0 l 1,-0.0977 v 0 l 1,-0.0977 v 0 l 1,-0.0976 v 0 l 1,-0.0975 v 0 l 1,-0.0974 v 0 l 1,-0.0973 v 0 l 1,-0.0972 v 0 l 1,-0.0971 v 0 l 1,-0.097 v 0 l 1,-0.0969 v 0 l 1,-0.0968 v 0 l 1,-0.0967 v 0 l 1,-0.0966 v 0 l 1,-0.0965 v 0 l 1,-0.0964 v 0 l 1,-0.0963 v 0 l 1,-0.0962 v 0 l 1,-0.0961 v 0 l 1,-0.096 v 0 l 1,-0.0959 v 0 l 1,-0.0958 v 0 l 1,-0.0957 v 0 l 1,-0.0956 v 0 l 1,-0.0956 v 0 l 1,-0.0955 v 0 l 1,-0.0954 v 0 l 1,-0.0953 v 0 l 1,-0.0952 v 0 l 1,-0.0951 v 0 l 1,-0.095 v 0 l 1,-0.0949 v 0 l 1,-0.0948 v 0 l 1,-0.0947 v 0 l 1,-0.0946 v 0 l 1,-0.0945 v 0 l 1,-0.0944 v 0 l 1,-0.0944 v 0 l 1,-0.0943 v 0 l 1,-0.0942 v 0 l 1,-0.0941 v 0 l 1,-0.094 v 0 l 1,-0.0939 v 0 l 1,-0.0938 v 0 l 1,-0.0937 v 0 l 1,-0.0936 v 0 l 1,-0.0935 v 0 l 1,-0.0934 v 0 l 1,-0.0934 v 0 l 1,-0.0933 v 0 l 1,-0.0932 v 0 l 1,-0.0931 v 0 l 1,-0.093 v 0 l 1,-0.0929 v 0 l 1,-0.0928 v 0 l 1,-0.0927 v 0 l 1,-0.0927 v 0 l 1,-0.0926 v 0 l 1,-0.0925 v 0 l 1,-0.0924 v 0 l 1,-0.0923 v 0 l 1,-0.0922 v 0 l 1,-0.0921 v 0 l 1,-0.092 v 0 l 1,-0.0919 v 0 l 1,-0.0919 v 0 l 1,-0.0918 v 0 l 1,-0.0917 v 0 l 1,-0.0916 v 0 l 1,-0.0915 v 0 l 1,-0.0914 v 0 l 1,-0.0913 v 0 l 1,-0.0913 v 0 l 1,-0.0912 v 0 l 1,-0.0911 v 0 l 1,-0.091 v 0 l 1,-0.0909 v 0 l 1,-0.0908 v 0 l 1,-0.0908 v 0 l 1,-0.0907 v 0 l 1,-0.0906 v 0 l 1,-0.0905 v 0 l 1,-0.0904 v 0 l 1,-0.0903 v 0 l 1,-0.0902 v 0 l 1,-0.0902 v 0 l 1,-0.0901 v 0 l 1,-0.09 v 0 l 1,-0.0899 v 0 l 1,-0.0898 v 0 l 1,-0.0898 v 0 l 1,-0.0897 v 0 l 1,-0.0896 v 0 l 1,-0.0895 v 0 l 1,-0.0894 v 0 l 1,-0.0894 v 0 l 1,-0.0893 v 0 l 1,-0.0892 v 0 l 1,-0.0891 v 0 l 1,-0.089 v 0 l 1,-0.0889 v 0 l 1,-0.0889 v 0 l 1,-0.0888 v 0 l 1,-0.0887 v 0 l 1,-0.0886 v 0 l 1,-0.0885 v 0 l 1,-0.0885 v 0 l 1,-0.0884 v 0 l 1,-0.0883 v 0 l 1,-0.0882 v 0 l 1,-0.0881 v 0 l 1,-0.088 v 0 l 1,-0.088 v 0 l 1,-0.0879 v 0 l 1,-0.0878 v 0 l 1,-0.0877 v 0 l 1,-0.0877 v 0 l 1,-0.0876 v 0 l 1,-0.0875 v 0 l 1,-0.0874 v 0 l 1,-0.0874 v 0 l 1,-0.0873 v 0 l 1,-0.0872 v 0 l 1,-0.0871 v 0 l 1,-0.087 v 0 l 1,-0.087 v 0 l 1,-0.0869 v 0 l 1,-0.0868 v 0 l 1,-0.0867 v 0 l 1,-0.0867 v 0 l 1,-0.0866 v 0 l 1,-0.0865 v 0 l 1,-0.0864 v 0 l 1,-0.0863 v 0 l 1,-0.0863 v 0 l 1,-0.0862 v 0 l 1,-0.0861 v 0 l 1,-0.086 v 0 l 1,-0.086 v 0 l 1,-0.0859 v 0 l 1,-0.0858 v 0 l 1,-0.0857 v 0 l 1,-0.0857 v 0 l 1,-0.0856 v 0 l 1,-0.0855 v 0 l 1,-0.0854 v 0 l 1,-0.0854 v 0 l 1,-0.0853 v 0 l 1,-0.0852 v 0 l 1,-0.0851 v 0 l 1,-0.0851 v 0 l 1,-0.085 v 0 l 1,-0.0849 v 0 l 1,-0.0849 v 0 l 1,-0.0848 v 0 l 1,-0.0847 v 0 l 1,-0.0846 v 0 l 1,-0.0845 v 0 l 1,-0.0845 v 0 l 1,-0.0844 v 0 l 1,-0.0843 v 0 l 1,-0.0843 v 0 l 1,-0.0842 v 0 l 1,-0.0841 v 0 l 1,-0.084 v 0 l 1,-0.084 v 0 l 1,-0.0839 v 0 l 1,-0.0838 v 0 l 1,-0.0838 v 0 l 1,-0.0837 v 0 l 1,-0.0836 v 0 l 1,-0.0835 v 0 l 1,-0.0835 v 0 l 1,-0.0834 v 0 l 1,-0.0833 v 0 l 1,-0.0832 v 0 l 1,-0.0832 v 0 l 1,-0.0831 v 0 l 1,-0.083 v 0 l 1,-0.083 v 0 l 1,-0.0829 v 0 l 1,-0.0828 v 0 l 1,-0.0828 v 0 l 1,-0.0827 v 0 l 1,-0.0826 v 0 l 1,-0.0826 v 0 l 1,-0.0825 v 0 l 1,-0.0824 v 0 l 1,-0.0824 v 0 l 1,-0.0823 v 0 l 1,-0.0822 v 0 l 1,-0.0821 v 0 l 1,-0.0821 v 0 l 1,-0.082 v 0 l 1,-0.0819 v 0 l 1,-0.0819 v 0 l 1,-0.0818 v 0 l 1,-0.0817 v 0 l 1,-0.0816 v 0 l 1,-0.0816 v 0 l 1,-0.0815 v 0 l 1,-0.0815 v 0 l 1,-0.0814 v 0 l 1,-0.0813 v 0 l 1,-0.0812 v 0 l 1,-0.0812 v 0 l 1,-0.0811 v 0 l 1,-0.081 v 0 l 1,-0.081 v 0 l 1,-0.0809 v 0 l 1,-0.0808 v 0 l 1,-0.0808 v 0 l 1,-0.0807 v 0 l 1,-0.0806 v 0 l 1,-0.0806 v 0 l 1,-0.0805 v 0 l 1,-0.0804 v 0 l 1,-0.0804 v 0 l 1,-0.0803 v 0 l 1,-0.0802 v 0 l 1,-0.0802 v 0 l 1,-0.0801 v 0 l 1,-0.08 v 0 l 1,-0.08 v 0 l 1,-0.0799 v 0 l 1,-0.0799 v 0 l 1,-0.0798 v 0 l 1,-0.0797 v 0 l 1,-0.0797 v 0 l 1,-0.0796 v 0 l 1,-0.0795 v 0 l 1,-0.0795 v 0 l 1,-0.0794 v 0 l 1,-0.0793 v 0 l 1,-0.0793 v 0 l 1,-0.0792 v 0 l 1,-0.0791 v 0 l 1,-0.0791 v 0 l 1,-0.079 v 0 l 1,-0.0789 v 0 l 1,-0.0789 v 0 l 1,-0.0788 v 0 l 1,-0.0788 v 0 l 1,-0.0787 v 0 l 1,-0.0786 v 0 l 1,-0.0786 v 0 l 1,-0.0785 v 0 l 1,-0.0784 v 0 l 1,-0.0784 v 0 l 1,-0.0783 v 0 l 1,-0.0782 v 0 l 1,-0.0782 v 0 l 1,-0.0781 v 0 l 1,-0.0781 v 0 l 1,-0.078 v 0 l 1,-0.0779 v 0 l 1,-0.0779 v 0 l 1,-0.0778 v 0 l 1,-0.0778 v 0 l 1,-0.0777 v 0 l 1,-0.0776 v 0 l 1,-0.0776 v 0 l 1,-0.0775 v 0 l 1,-0.0775 v 0 l 1,-0.0774 v 0 l 1,-0.0773 v 0 l 1,-0.0773 v 0 l 1,-0.0772 v 0 l 1,-0.0771 v 0 l 1,-0.0771 v 0 l 1,-0.077 v 0 l 1,-0.077 v 0 l 1,-0.0769 v 0 l 1,-0.0768 v 0 l 1,-0.0768 v 0 l 1,-0.0767 v 0 l 1,-0.0767 v 0 l 1,-0.0766 v 0 l 1,-0.0765 v 0 l 1,-0.0765 v 0 l 1,-0.0764 v 0 l 1,-0.0763 v 0 l 1,-0.0763 v 0 l 1,-0.0762 v 0 l 1,-0.0762 v 0 l 1,-0.0761 v 0 l 1,-0.0761 v 0 l 1,-0.076 v 0 l 1,-0.0759 v 0 l 1,-0.0759 v 0 l 1,-0.0758 v 0 l 1,-0.0758 v 0 l 1,-0.0757 v 0 l 1,-0.0756 v 0 l 1,-0.0756 v 0 l 1,-0.0755 v 0 l 1,-0.0755 v 0 l 1,-0.0754 v 0 l 1,-0.0754 v 0 l 1,-0.0753 v 0 l 1,-0.0752 v 0 l 1,-0.0752 v 0 l 1,-0.0751 v 0 l 1,-0.0751"
               stroke-opacity="0.8"
               stroke-linecap="round"
               stroke-linejoin="round"
               stroke-miterlimit="10"
               stroke-width="2.5"
               id="path5568"
               style="stroke-width:31.4528;stroke-dasharray:none"
               transform="matrix(0.01271745,0,0,0.01271745,44.004188,42.633096)" /><path
               fill="none"
               stroke="#006758"
               paint-order="fill stroke markers"
               d="M -5,646.86199 646.86199,-5"
               stroke-opacity="0.8"
               stroke-linecap="round"
               stroke-linejoin="round"
               stroke-miterlimit="10"
               stroke-width="2.5"
               id="path5632"
               style="stroke-width:31.4528;stroke-dasharray:none"
               transform="matrix(0.01271745,0,0,0.01271745,44.004188,42.633096)" /><text
               xml:space="preserve"
               style="font-size:270.462px;font-family:'Times New Roman';-inkscape-font-specification:'Times New Roman, ';text-align:center;text-anchor:middle;fill:#000000;fill-opacity:1;stroke:none;stroke-width:31.4528;stroke-dasharray:none;stroke-opacity:1"
               x="2403.238"
               y="-237.20551"
               id="text7016"
               transform="matrix(0.01271745,0,0,0.01271745,44.004188,42.633096)"><tspan
                 sodipodi:role="line"
                 id="tspan7014"
                 style="stroke-width:31.4528;stroke-dasharray:none"
                 x="2403.238"
                 y="-237.20551">70eSCap</tspan></text><text
               xml:space="preserve"
               style="font-size:3.43959px;font-family:'Times New Roman';-inkscape-font-specification:'Times New Roman, ';text-align:center;text-anchor:middle;fill:#000000;fill-opacity:1;stroke:none;stroke-width:0.4;stroke-dasharray:none;stroke-opacity:1"
               x="74.567245"
               y="43.849785"
               id="text7022"><tspan
                 sodipodi:role="line"
                 id="tspan7020"
                 style="stroke-width:0.4;stroke-dasharray:none"
                 x="74.567245"
                 y="43.849785">83eSCap</tspan></text><text
               xml:space="preserve"
               style="font-size:3.43959px;font-family:'Times New Roman';-inkscape-font-specification:'Times New Roman, ';text-align:center;text-anchor:middle;fill:#000000;fill-opacity:1;stroke:none;stroke-width:0.4;stroke-dasharray:none;stroke-opacity:1"
               x="74.567245"
               y="48.083122"
               id="text7026"><tspan
                 sodipodi:role="line"
                 id="tspan7024"
                 style="stroke-width:0.4;stroke-dasharray:none"
                 x="74.567245"
                 y="48.083122">24eSCap</tspan></text><text
               xml:space="preserve"
               style="font-size:3.43959px;font-family:'Times New Roman';-inkscape-font-specification:'Times New Roman, ';text-align:center;text-anchor:middle;fill:#000000;fill-opacity:1;stroke:none;stroke-width:0.4;stroke-dasharray:none;stroke-opacity:1"
               x="74.567245"
               y="52.31646"
               id="text7030"><tspan
                 sodipodi:role="line"
                 id="tspan7028"
                 style="stroke-width:0.4;stroke-dasharray:none"
                 x="74.567245"
                 y="52.31646">...</tspan></text></g><rect
             style="fill:none;fill-opacity:1;stroke:#000000;stroke-width:0.2;stroke-dasharray:none;stroke-opacity:1"
             id="rect7135"
             width="16.380346"
             height="16.380346"
             x="71.022247"
             y="44.251385" /></g><rect
           style="fill:#000000;fill-opacity:1;stroke:none;stroke-width:0.345446"
           id="rect7137"
           width="16.706923"
           height="0.30560347"
           x="38.958233"
           y="-76.708595"
           transform="rotate(90)" /><path
           sodipodi:type="star"
           style="fill:#000000;fill-opacity:1;stroke:none;stroke-width:0.349001"
           id="path7139"
           inkscape:flatsided="true"
           sodipodi:sides="3"
           sodipodi:cx="12.346381"
           sodipodi:cy="24.69276"
           sodipodi:r1="1.7222593"
           sodipodi:r2="0.86112964"
           sodipodi:arg1="1.0471976"
           sodipodi:arg2="2.0943951"
           inkscape:rounded="0"
           inkscape:randomized="0"
           d="M 13.207511,26.184281 10.624122,24.69276 13.207511,23.20124 Z"
           transform="rotate(90,37.686115,63.552799)"
           inkscape:transform-center-x="0.43056409" /><text
           xml:space="preserve"
           style="font-size:18.4529px;font-family:'Times New Roman';-inkscape-font-specification:'Times New Roman, ';text-align:center;text-anchor:middle;fill:#000000;fill-opacity:1;stroke:none;stroke-width:0.0968662;stroke-dasharray:none;stroke-opacity:1"
           x="-73.402863"
           y="41.491661"
           id="text7149"
           transform="matrix(0,-0.48432958,2.0647098,0,0,0)"><tspan
             sodipodi:role="line"
             id="tspan7147"
             style="font-size:18.4529px;fill:#000000;fill-opacity:1;stroke:none;stroke-width:0.0968662"
             x="-73.402863"
             y="41.491661">{</tspan></text><rect
           style="fill:#000000;fill-opacity:1;stroke:none;stroke-width:0.548983"
           id="rect7151"
           width="42.194256"
           height="0.30560347"
           x="-97.683479"
           y="-33.176983"
           transform="scale(-1)" /><rect
           style="fill:#000000;fill-opacity:1;stroke:none;stroke-width:0.0780676"
           id="rect7153"
           width="0.85325271"
           height="0.30560347"
           x="32.630478"
           y="65.850204"
           transform="matrix(0,1,1,0,0,0)" /><rect
           style="fill:#000000;fill-opacity:1;stroke:none;stroke-width:0.0780676"
           id="rect7155"
           width="0.85325271"
           height="0.30560347"
           x="32.630478"
           y="79.262741"
           transform="matrix(0,1,1,0,0,0)" /><rect
           style="fill:#000000;fill-opacity:1;stroke:none;stroke-width:0.0780676"
           id="rect7157"
           width="0.85325271"
           height="0.30560347"
           x="32.630478"
           y="87.546059"
           transform="matrix(0,1,1,0,0,0)" /><text
           xml:space="preserve"
           style="font-size:2.64583px;font-family:'Times New Roman';-inkscape-font-specification:'Times New Roman, ';text-align:center;text-anchor:middle;fill:#000000;fill-opacity:1;stroke:none;stroke-width:0.2;stroke-dasharray:none;stroke-opacity:1"
           x="59.981964"
           y="32.561344"
           id="text7161"><tspan
             sodipodi:role="line"
             id="tspan7159"
             style="font-size:2.64583px;stroke-width:0.2"
             x="59.981964"
             y="32.561344">Alice</tspan></text><text
           xml:space="preserve"
           style="font-size:2.64583px;font-family:'Times New Roman';-inkscape-font-specification:'Times New Roman, ';text-align:center;text-anchor:middle;fill:#000000;fill-opacity:1;stroke:none;stroke-width:0.2;stroke-dasharray:none;stroke-opacity:1"
           x="72.681969"
           y="32.561344"
           id="text7165"><tspan
             sodipodi:role="line"
             id="tspan7163"
             style="font-size:2.64583px;stroke-width:0.2"
             x="72.681969"
             y="32.561344">Bob</tspan></text><text
           xml:space="preserve"
           style="font-size:2.64583px;font-family:'Times New Roman';-inkscape-font-specification:'Times New Roman, ';text-align:center;text-anchor:middle;fill:#000000;fill-opacity:1;stroke:none;stroke-width:0.2;stroke-dasharray:none;stroke-opacity:1"
           x="83.387909"
           y="32.561779"
           id="text7169"><tspan
             sodipodi:role="line"
             id="tspan7167"
             style="stroke-width:0.2"
             x="83.387909"
             y="32.561779">Claude</tspan></text><text
           xml:space="preserve"
           style="font-size:2.64583px;font-family:'Times New Roman';-inkscape-font-specification:'Times New Roman, ';text-align:center;text-anchor:middle;fill:#000000;fill-opacity:1;stroke:none;stroke-width:0.2;stroke-dasharray:none;stroke-opacity:1"
           x="91.071625"
           y="32.561317"
           id="text7173"><tspan
             sodipodi:role="line"
             id="tspan7171"
             style="stroke-width:0.2"
             x="91.071625"
             y="32.561317">...</tspan></text><rect
           style="fill:#000000;fill-opacity:1;stroke:none;stroke-width:0.162022"
           id="rect8627"
           width="5.644136"
           height="0.199"
           x="-28.637598"
           y="72.824821"
           transform="rotate(-90)" /><path
           sodipodi:type="star"
           style="fill:#000000;fill-opacity:1;stroke:none;stroke-width:0.349001"
           id="path8629"
           inkscape:flatsided="true"
           sodipodi:sides="3"
           sodipodi:cx="12.346381"
           sodipodi:cy="24.69276"
           sodipodi:r1="1.7222593"
           sodipodi:r2="0.86112964"
           sodipodi:arg1="1.0471976"
           sodipodi:arg2="2.0943951"
           inkscape:rounded="0"
           inkscape:randomized="0"
           d="M 13.207511,26.184281 10.624122,24.69276 13.207511,23.20124 Z"
           inkscape:transform-center-x="0.28059061"
           transform="matrix(0,-0.65168029,0.65168029,0,56.838821,36.887055)" /><text
           xml:space="preserve"
           style="font-size:2.64583px;font-family:'Times New Roman';-inkscape-font-specification:'Times New Roman, ';text-align:center;text-anchor:middle;fill:#000000;fill-opacity:1;stroke:none;stroke-width:0.2;stroke-dasharray:none;stroke-opacity:1"
           x="54.956196"
           y="23.687454"
           id="text8639"><tspan
             sodipodi:role="line"
             id="tspan8637"
             style="stroke-width:0.2"
             x="54.956196"
             y="23.687454">Randao Randomness</tspan></text><rect
           style="fill:none;fill-opacity:1;stroke:#000000;stroke-width:0.275;stroke-dasharray:none;stroke-opacity:1"
           id="rect8641"
           width="31.871414"
           height="20.611002"
           x="75.255974"
           y="0.18720727" /><text
           xml:space="preserve"
           style="font-size:4.23333px;font-family:'Times New Roman';-inkscape-font-specification:'Times New Roman, ';text-align:center;text-anchor:middle;fill:none;fill-opacity:1;stroke:#000000;stroke-width:0.499999;stroke-dasharray:none;stroke-opacity:1"
           x="76.647903"
           y="4.8787131"
           id="text8716"><tspan
             sodipodi:role="line"
             id="tspan8714"
             style="font-size:4.23333px;text-align:start;text-anchor:start;fill:#000000;fill-opacity:1;stroke:none;stroke-width:0.5"
             x="76.647903"
             y="4.8787131">Block n</tspan><tspan
             sodipodi:role="line"
             style="font-size:2.91042px;text-align:start;text-anchor:start;fill:#464646;fill-opacity:1;stroke:none;stroke-width:0.5"
             x="76.647903"
             y="10.170376"
             id="tspan9828" /></text><rect
           style="fill:#000000;fill-opacity:1;stroke:none;stroke-width:0.228114"
           id="rect8722"
           width="7.2852111"
           height="0.30560347"
           x="67.830925"
           y="8.3735352" /><path
           sodipodi:type="star"
           style="fill:#000000;fill-opacity:1;stroke:none;stroke-width:0.349001"
           id="path8724"
           inkscape:flatsided="true"
           sodipodi:sides="3"
           sodipodi:cx="12.346381"
           sodipodi:cy="24.69276"
           sodipodi:r1="1.7222593"
           sodipodi:r2="0.86112964"
           sodipodi:arg1="1.0471976"
           sodipodi:arg2="2.0943951"
           inkscape:rounded="0"
           inkscape:randomized="0"
           d="M 13.207511,26.184281 10.624122,24.69276 13.207511,23.20124 Z"
           inkscape:transform-center-x="0.43056498"
           transform="translate(55.178931,-16.156783)" /><rect
           style="fill:#000000;fill-opacity:1;stroke:none;stroke-width:0.228114"
           id="rect8726"
           width="7.2852111"
           height="0.30560347"
           x="37.798061"
           y="8.3735352" /><path
           sodipodi:type="star"
           style="fill:#000000;fill-opacity:1;stroke:none;stroke-width:0.349001"
           id="path8728"
           inkscape:flatsided="true"
           sodipodi:sides="3"
           sodipodi:cx="12.346381"
           sodipodi:cy="24.69276"
           sodipodi:r1="1.7222593"
           sodipodi:r2="0.86112964"
           sodipodi:arg1="1.0471976"
           sodipodi:arg2="2.0943951"
           inkscape:rounded="0"
           inkscape:randomized="0"
           d="M 13.207511,26.184281 10.624122,24.69276 13.207511,23.20124 Z"
           inkscape:transform-center-x="0.43056498"
           transform="translate(25.146074,-16.156783)" /><text
           xml:space="preserve"
           style="font-size:4.23333px;font-family:'Times New Roman';-inkscape-font-specification:'Times New Roman, ';text-align:start;text-anchor:start;fill:#000000;fill-opacity:1;stroke:none;stroke-width:0.416999;stroke-dasharray:none;stroke-opacity:1"
           x="31.549768"
           y="8.7750092"
           id="text8732"><tspan
             sodipodi:role="line"
             id="tspan8730"
             style="stroke-width:0.417"
             x="31.549768"
             y="8.7750092">...</tspan></text><rect
           style="fill:#000000;fill-opacity:1;stroke:none;stroke-width:0.12"
           id="rect9818"
           width="3.0936427"
           height="0.19915576"
           x="-19.824551"
           y="54.833061"
           transform="rotate(-90)" /><path
           sodipodi:type="star"
           style="fill:#000000;fill-opacity:1;stroke:none;stroke-width:0.349001"
           id="path9820"
           inkscape:flatsided="true"
           sodipodi:sides="3"
           sodipodi:cx="12.346381"
           sodipodi:cy="24.69276"
           sodipodi:r1="1.7222593"
           sodipodi:r2="0.86112964"
           sodipodi:arg1="1.0471976"
           sodipodi:arg2="2.0943951"
           inkscape:rounded="0"
           inkscape:randomized="0"
           d="M 13.207511,26.184281 10.624122,24.69276 13.207511,23.20124 Z"
           inkscape:transform-center-x="0.28059061"
           transform="matrix(0,-0.65168029,0.65168029,0,38.847141,28.069593)" /><rect
           style="fill:#000000;fill-opacity:1;stroke:none;stroke-width:0.138043;stroke-dasharray:none;stroke-opacity:1"
           id="rect9822"
           width="5.8973923"
           height="0.199"
           x="67.126968"
           y="22.992865" /><rect
           style="fill:none;fill-opacity:1;stroke:#000000;stroke-width:0.143819;stroke-dasharray:none;stroke-opacity:1"
           id="rect9824"
           width="24.431253"
           height="3.3988535"
           x="42.741669"
           y="21.212774"
           ry="0" /><g
           id="g2823"
           style="stroke-width:0.4;stroke-dasharray:none"
           transform="translate(-1.749872,38.891673)"><g
             id="g6120"><rect
               style="fill:none;fill-opacity:1;stroke:#000000;stroke-width:0.4;stroke-dasharray:none;stroke-opacity:1"
               id="rect2727"
               width="83.653206"
               height="24.980246"
               x="6.2908721"
               y="36.728977" /><text
               xml:space="preserve"
               style="font-size:4.23333px;font-family:'Times New Roman';-inkscape-font-specification:'Times New Roman, ';text-align:center;text-anchor:middle;fill:none;fill-opacity:1;stroke:#000000;stroke-width:0.4;stroke-dasharray:none;stroke-opacity:1"
               x="32.749226"
               y="41.439835"
               id="text2731"><tspan
                 sodipodi:role="line"
                 id="tspan2729"
                 style="fill:#000000;fill-opacity:1;stroke:none;stroke-width:0.4;stroke-dasharray:none"
                 x="32.749226"
                 y="41.439835">Clients/Followers</tspan></text><rect
               style="fill:#000000;fill-opacity:1;stroke:none;stroke-width:0.4;stroke-dasharray:none"
               id="rect2733"
               width="83.554665"
               height="0.30560347"
               x="6.2556057"
               y="42.940014" /><text
               xml:space="preserve"
               style="font-size:3.43958px;font-family:'Times New Roman';-inkscape-font-specification:'Times New Roman, ';text-align:center;text-anchor:middle;fill:#000000;fill-opacity:1;stroke:none;stroke-width:0.4;stroke-dasharray:none;stroke-opacity:1"
               x="26.203991"
               y="47.253883"
               id="text2737"><tspan
                 sodipodi:role="line"
                 id="tspan2735"
                 style="font-size:3.43958px;stroke-width:0.4;stroke-dasharray:none"
                 x="26.203991"
                 y="47.253883">Daniel: 0xd...  500pSCap</tspan></text><text
               xml:space="preserve"
               style="font-size:3.43958px;font-family:'Times New Roman';-inkscape-font-specification:'Times New Roman, ';text-align:center;text-anchor:middle;fill:#000000;fill-opacity:1;stroke:none;stroke-width:0.4;stroke-dasharray:none;stroke-opacity:1"
               x="26.402433"
               y="51.487221"
               id="text2741"><tspan
                 sodipodi:role="line"
                 id="tspan2739"
                 style="font-size:3.43958px;stroke-width:0.4;stroke-dasharray:none"
                 x="26.402433"
                 y="51.487221">Elijah:  0xe...       0pSCap</tspan></text><text
               xml:space="preserve"
               style="font-size:3.43958px;font-family:'Times New Roman';-inkscape-font-specification:'Times New Roman, ';text-align:center;text-anchor:middle;fill:#000000;fill-opacity:1;stroke:none;stroke-width:0.4;stroke-dasharray:none;stroke-opacity:1"
               x="26.435505"
               y="55.720558"
               id="text2745"><tspan
                 sodipodi:role="line"
                 id="tspan2743"
                 style="font-size:3.43958px;stroke-width:0.4;stroke-dasharray:none"
                 x="26.435505"
                 y="55.720558">Frank:  0xf...      10pSCap</tspan></text><text
               xml:space="preserve"
               style="font-size:3.43958px;font-family:'Times New Roman';-inkscape-font-specification:'Times New Roman, ';text-align:center;text-anchor:middle;fill:#000000;fill-opacity:1;stroke:none;stroke-width:0.4;stroke-dasharray:none;stroke-opacity:1"
               x="24.814932"
               y="59.953896"
               id="text2749"><tspan
                 sodipodi:role="line"
                 id="tspan2747"
                 style="font-size:3.43958px;stroke-width:0.4;stroke-dasharray:none"
                 x="24.814932"
                 y="59.953896">...</tspan></text><text
               xml:space="preserve"
               style="font-size:3.43959px;font-family:'Times New Roman';-inkscape-font-specification:'Times New Roman, ';text-align:center;text-anchor:middle;fill:#000000;fill-opacity:1;stroke:none;stroke-width:0.399999;stroke-dasharray:none;stroke-opacity:1"
               x="71.477554"
               y="47.195412"
               id="text2805"><tspan
                 sodipodi:role="line"
                 id="tspan2803"
                 style="stroke-width:0.399999;stroke-dasharray:none"
                 x="71.477554"
                 y="47.195412">[None]</tspan></text><text
               xml:space="preserve"
               style="font-size:3.43959px;font-family:'Times New Roman';-inkscape-font-specification:'Times New Roman, ';text-align:center;text-anchor:middle;fill:#000000;fill-opacity:1;stroke:none;stroke-width:0.4;stroke-dasharray:none;stroke-opacity:1"
               x="72.161713"
               y="51.428753"
               id="text2809"><tspan
                 sodipodi:role="line"
                 id="tspan2807"
                 style="stroke-width:0.4;stroke-dasharray:none"
                 x="72.161713"
                 y="51.428753">[0xa - 400, 0xc - 100]</tspan></text><text
               xml:space="preserve"
               style="font-size:3.43959px;font-family:'Times New Roman';-inkscape-font-specification:'Times New Roman, ';text-align:center;text-anchor:middle;fill:#000000;fill-opacity:1;stroke:none;stroke-width:0.4;stroke-dasharray:none;stroke-opacity:1"
               x="72.006721"
               y="55.66209"
               id="text2813"><tspan
                 sodipodi:role="line"
                 id="tspan2811"
                 style="stroke-width:0.4;stroke-dasharray:none"
                 x="72.006721"
                 y="55.66209">[0xa - 100, 0xb - 200,</tspan><tspan
                 sodipodi:role="line"
                 style="stroke-width:0.4;stroke-dasharray:none"
                 x="72.006721"
                 y="59.961578"
                 id="tspan5102"> 0xc-190]</tspan></text><rect
               style="fill:none;fill-opacity:1;stroke:#000000;stroke-width:0.361255;stroke-dasharray:none;stroke-opacity:1"
               id="rect2821"
               width="35.092995"
               height="24.945427"
               x="54.8461"
               y="36.754917" /><text
               xml:space="preserve"
               style="font-size:4.23333px;font-family:'Times New Roman';-inkscape-font-specification:'Times New Roman, ';fill:#464646;fill-opacity:1;stroke:none;stroke-width:0.275;stroke-dasharray:none"
               x="57.35556"
               y="41.439678"
               id="text5100"><tspan
                 sodipodi:role="line"
                 id="tspan5098"
                 style="font-size:4.23333px;fill:#000000;fill-opacity:1;stroke-width:0.275"
                 x="57.35556"
                 y="41.439678">Endorsement List</tspan></text></g><g
             id="g8363"
             transform="translate(0,10.054167)"><rect
               style="fill:none;fill-opacity:1;stroke:#000000;stroke-width:0.35;stroke-dasharray:none;stroke-opacity:1"
               id="rect8352"
               width="16.99592"
               height="5.9593019"
               x="106.25541"
               y="8.5850668"
               ry="0.99321705" /><text
               xml:space="preserve"
               style="font-size:4.23333px;font-family:'Times New Roman';-inkscape-font-specification:'Times New Roman, ';fill:none;fill-opacity:1;stroke:#000000;stroke-width:0.372999;stroke-dasharray:none;stroke-opacity:1"
               x="109.96447"
               y="13.098949"
               id="text8358"><tspan
                 sodipodi:role="line"
                 id="tspan8356"
                 style="fill:#000000;fill-opacity:1;stroke:none;stroke-width:0.373"
                 x="109.96447"
                 y="13.098949">Alice</tspan></text></g><g
             id="g8375"
             transform="translate(-10.583334,37.041684)"><rect
               style="fill:none;fill-opacity:1;stroke:#000000;stroke-width:0.35;stroke-dasharray:none;stroke-opacity:1"
               id="rect8369"
               width="16.99592"
               height="5.9593019"
               x="106.25541"
               y="8.5850668"
               ry="0.99321705" /><text
               xml:space="preserve"
               style="font-size:4.23333px;font-family:'Times New Roman';-inkscape-font-specification:'Times New Roman, ';fill:none;fill-opacity:1;stroke:#000000;stroke-width:0.372999;stroke-dasharray:none;stroke-opacity:1"
               x="109.96447"
               y="13.098949"
               id="text8373"><tspan
                 sodipodi:role="line"
                 id="tspan8371"
                 style="fill:#000000;fill-opacity:1;stroke:none;stroke-width:0.373"
                 x="109.96447"
                 y="13.098949">Elijah</tspan></text></g><g
             id="g8383"
             transform="translate(10.583334,41.804187)"><rect
               style="fill:none;fill-opacity:1;stroke:#000000;stroke-width:0.35;stroke-dasharray:none;stroke-opacity:1"
               id="rect8377"
               width="16.99592"
               height="5.9593019"
               x="106.25541"
               y="8.5850668"
               ry="0.99321705" /><text
               xml:space="preserve"
               style="font-size:4.23333px;font-family:'Times New Roman';-inkscape-font-specification:'Times New Roman, ';fill:none;fill-opacity:1;stroke:#000000;stroke-width:0.372999;stroke-dasharray:none;stroke-opacity:1"
               x="109.96447"
               y="13.098949"
               id="text8381"><tspan
                 sodipodi:role="line"
                 id="tspan8379"
                 style="fill:#000000;fill-opacity:1;stroke:none;stroke-width:0.373"
                 x="109.96447"
                 y="13.098949">Frank</tspan></text></g></g><rect
           style="fill:#000000;fill-opacity:1;stroke:none;stroke-width:0.316959"
           id="rect8365"
           width="14.065159"
           height="0.30560347"
           x="90.419746"
           y="60.231903" /><path
           sodipodi:type="star"
           style="fill:#000000;fill-opacity:1;stroke:none;stroke-width:0.349001"
           id="path8367"
           inkscape:flatsided="true"
           sodipodi:sides="3"
           sodipodi:cx="12.346381"
           sodipodi:cy="24.69276"
           sodipodi:r1="1.7222593"
           sodipodi:r2="0.86112964"
           sodipodi:arg1="1.0471976"
           sodipodi:arg2="2.0943951"
           inkscape:rounded="0"
           inkscape:randomized="0"
           d="M 13.207511,26.184281 10.624122,24.69276 13.207511,23.20124 Z"
           inkscape:transform-center-x="0.43056498"
           transform="translate(77.767746,35.701571)" /><rect
           style="fill:#000000;fill-opacity:1;stroke:none;stroke-width:0.419027"
           id="rect8385"
           width="24.582346"
           height="0.30560347"
           x="90.419746"
           y="92.345734" /><path
           sodipodi:type="star"
           style="fill:#000000;fill-opacity:1;stroke:none;stroke-width:0.349001"
           id="path8387"
           inkscape:flatsided="true"
           sodipodi:sides="3"
           sodipodi:cx="12.346381"
           sodipodi:cy="24.69276"
           sodipodi:r1="1.7222593"
           sodipodi:r2="0.86112964"
           sodipodi:arg1="1.0471976"
           sodipodi:arg2="2.0943951"
           inkscape:rounded="0"
           inkscape:randomized="0"
           d="M 13.207511,26.184281 10.624122,24.69276 13.207511,23.20124 Z"
           inkscape:transform-center-x="0.43056498"
           transform="translate(77.767746,67.815394)" /><rect
           style="fill:#000000;fill-opacity:1;stroke:none;stroke-width:0.158448"
           id="rect8389"
           width="3.5148981"
           height="0.30560347"
           x="90.419746"
           y="87.484009" /><path
           sodipodi:type="star"
           style="fill:#000000;fill-opacity:1;stroke:none;stroke-width:0.349001"
           id="path8391"
           inkscape:flatsided="true"
           sodipodi:sides="3"
           sodipodi:cx="12.346381"
           sodipodi:cy="24.69276"
           sodipodi:r1="1.7222593"
           sodipodi:r2="0.86112964"
           sodipodi:arg1="1.0471976"
           sodipodi:arg2="2.0943951"
           inkscape:rounded="0"
           inkscape:randomized="0"
           d="M 13.207511,26.184281 10.624122,24.69276 13.207511,23.20124 Z"
           inkscape:transform-center-x="0.43056498"
           transform="translate(77.767746,62.95367)" /><rect
           style="fill:#000000;fill-opacity:1;stroke:none;stroke-width:0.369683"
           id="rect8393"
           width="19.133577"
           height="0.30560347"
           x="-82.320999"
           y="104.74258"
           transform="rotate(-90)" /><path
           sodipodi:type="star"
           style="fill:#000000;fill-opacity:1;stroke:none;stroke-width:0.349001"
           id="path8395"
           inkscape:flatsided="true"
           sodipodi:sides="3"
           sodipodi:cx="12.346381"
           sodipodi:cy="24.69276"
           sodipodi:r1="1.7222593"
           sodipodi:r2="0.86112964"
           sodipodi:arg1="1.0471976"
           sodipodi:arg2="2.0943951"
           inkscape:rounded="0"
           inkscape:randomized="0"
           d="M 13.207511,26.184281 10.624122,24.69276 13.207511,23.20124 Z"
           inkscape:transform-center-x="0.43056498"
           transform="rotate(-90,87.592615,7.3803809)" /><rect
           style="fill:#000000;fill-opacity:1;stroke:none;stroke-width:0.411418"
           id="rect8403"
           width="23.697639"
           height="0.30560347"
           x="-87.083504"
           y="120.61755"
           transform="rotate(-90)" /><path
           sodipodi:type="star"
           style="fill:#000000;fill-opacity:1;stroke:none;stroke-width:0.349001"
           id="path8405"
           inkscape:flatsided="true"
           sodipodi:sides="3"
           sodipodi:cx="12.346381"
           sodipodi:cy="24.69276"
           sodipodi:r1="1.7222593"
           sodipodi:r2="0.86112964"
           sodipodi:arg1="1.0471976"
           sodipodi:arg2="2.0943951"
           inkscape:rounded="0"
           inkscape:randomized="0"
           d="M 13.207511,26.184281 10.624122,24.69276 13.207511,23.20124 Z"
           inkscape:transform-center-x="0.43056498"
           transform="rotate(-90,97.911352,1.8241309)" /><text
           xml:space="preserve"
           style="font-size:2.91042px;font-family:'Times New Roman';-inkscape-font-specification:'Times New Roman, ';fill:#000000;fill-opacity:1;stroke:none;stroke-width:0.349999;stroke-dasharray:none;stroke-opacity:1"
           x="121.31147"
           y="64.161453"
           id="text8409"><tspan
             sodipodi:role="line"
             id="tspan8407"
             style="font-size:2.91042px;stroke-width:0.35"
             x="121.31147"
             y="64.161453"
             dy="1.55">2a) Send </tspan><tspan
             sodipodi:role="line"
             style="font-size:2.91042px;stroke-width:0.35"
             x="121.31147"
             y="67.799477"
             id="tspan8614"
             dy="0.80000001">follower-exclusive</tspan><tspan
             sodipodi:role="line"
             style="font-size:2.91042px;stroke-width:0.35"
             x="121.31147"
             y="71.4375"
             id="tspan8616">content</tspan></text><text
           xml:space="preserve"
           style="font-size:2.91042px;font-family:'Times New Roman';-inkscape-font-specification:'Times New Roman, ';fill:#000000;fill-opacity:1;stroke:none;stroke-width:0.349999;stroke-dasharray:none;stroke-opacity:1"
           x="100.67395"
           y="66.013542"
           id="text8620"><tspan
             sodipodi:role="line"
             id="tspan8618"
             style="stroke-width:0.35"
             x="100.67395"
             y="66.013542">2a)</tspan></text><rect
           style="fill:#ffeb2a;fill-opacity:1;stroke:#000000;stroke-width:0.1;stroke-dasharray:none;stroke-opacity:1"
           id="rect8622"
           width="23.361326"
           height="0.3062214"
           x="65.793671"
           y="118.5006"
           transform="matrix(0,1,1,0,0,0)" /><path
           sodipodi:type="star"
           style="fill:#ffeb2a;fill-opacity:1;stroke:#000000;stroke-width:0.101;stroke-dasharray:none;stroke-opacity:1"
           id="path8624"
           inkscape:flatsided="true"
           sodipodi:sides="3"
           sodipodi:cx="12.346381"
           sodipodi:cy="24.69276"
           sodipodi:r1="1.7222593"
           sodipodi:r2="0.86112964"
           sodipodi:arg1="1.0471976"
           sodipodi:arg2="2.0943951"
           inkscape:rounded="0"
           inkscape:randomized="0"
           d="M 13.207511,26.184281 10.624122,24.69276 13.207511,23.20124 Z"
           inkscape:transform-center-x="0.43056518"
           transform="matrix(0,1,1,0,93.970557,53.14207)" /><rect
           style="fill:#ffeb2a;fill-opacity:1;stroke:#000000;stroke-width:0.090945;stroke-dasharray:none;stroke-opacity:1"
           id="rect10078"
           width="18.60207"
           height="0.31565842"
           x="65.788948"
           y="106.85423"
           transform="matrix(0,1,1,0,0,0)" /><path
           sodipodi:type="star"
           style="fill:#ffeb2a;fill-opacity:1;stroke:#000000;stroke-width:0.101;stroke-dasharray:none;stroke-opacity:1"
           id="path10080"
           inkscape:flatsided="true"
           sodipodi:sides="3"
           sodipodi:cx="12.346381"
           sodipodi:cy="24.69276"
           sodipodi:r1="1.7222593"
           sodipodi:r2="0.86112964"
           sodipodi:arg1="1.0471976"
           sodipodi:arg2="2.0943951"
           inkscape:rounded="0"
           inkscape:randomized="0"
           d="M 13.207511,26.184281 10.624122,24.69276 13.207511,23.20124 Z"
           inkscape:transform-center-x="0.43056518"
           transform="matrix(0,1,1,0,82.328882,53.14207)" /><text
           xml:space="preserve"
           style="font-size:2.91042px;font-family:'Times New Roman';-inkscape-font-specification:'Times New Roman, ';fill:#ffeb2a;fill-opacity:1;stroke:#000000;stroke-width:0.101;stroke-dasharray:none;stroke-opacity:1"
           x="121.50988"
           y="73.818748"
           id="text10186"><tspan
             sodipodi:role="line"
             id="tspan10184"
             style="fill:#ffeb2a;fill-opacity:1;stroke-width:0.101"
             x="121.50988"
             y="73.818748"
             dy="1">2b) <tspan
   style="fill:#000000;fill-opacity:1;stroke:none"
   id="tspan10450">Prove</tspan></tspan><tspan
             sodipodi:role="line"
             style="fill:#000000;fill-opacity:1;stroke:none;stroke-width:0.101"
             x="121.50988"
             y="77.456772"
             id="tspan10448">engagement</tspan></text><rect
           style="fill:#ff4846;fill-opacity:1;stroke:#000000;stroke-width:0.1;stroke-dasharray:none;stroke-opacity:1"
           id="rect10452"
           width="23.697639"
           height="0.30560347"
           x="-87.083504"
           y="116.38424"
           transform="rotate(-90)" /><path
           sodipodi:type="star"
           style="fill:#ff4846;fill-opacity:1;stroke:#000000;stroke-width:0.1;stroke-opacity:1;stroke-dasharray:none"
           id="path10454"
           inkscape:flatsided="true"
           sodipodi:sides="3"
           sodipodi:cx="12.346381"
           sodipodi:cy="24.69276"
           sodipodi:r1="1.7222593"
           sodipodi:r2="0.86112964"
           sodipodi:arg1="1.0471976"
           sodipodi:arg2="2.0943951"
           inkscape:rounded="0"
           inkscape:randomized="0"
           d="M 13.207511,26.184281 10.624122,24.69276 13.207511,23.20124 Z"
           inkscape:transform-center-x="0.43056498"
           transform="rotate(-90,95.794688,3.9407976)" /><rect
           style="fill:#ff4846;fill-opacity:1;stroke:#000000;stroke-width:0.1;stroke-opacity:1;stroke-dasharray:none"
           id="rect10456"
           width="18.935141"
           height="0.30560347"
           x="-82.320999"
           y="108.97591"
           transform="rotate(-90)" /><path
           sodipodi:type="star"
           style="fill:#ff4846;fill-opacity:1;stroke:#000000;stroke-width:0.1;stroke-dasharray:none;stroke-opacity:1"
           id="path10458"
           inkscape:flatsided="true"
           sodipodi:sides="3"
           sodipodi:cx="12.346381"
           sodipodi:cy="24.69276"
           sodipodi:r1="1.7222593"
           sodipodi:r2="0.86112964"
           sodipodi:arg1="1.0471976"
           sodipodi:arg2="2.0943951"
           inkscape:rounded="0"
           inkscape:randomized="0"
           d="M 13.207511,26.184281 10.624122,24.69276 13.207511,23.20124 Z"
           inkscape:transform-center-x="0.43056498"
           transform="rotate(-90,89.709279,5.2637142)" /><text
           xml:space="preserve"
           style="font-size:2.91042px;font-family:'Times New Roman';-inkscape-font-specification:'Times New Roman, ';fill:#ff4846;fill-opacity:1;stroke:#000000;stroke-width:0.1;stroke-dasharray:none;stroke-opacity:1"
           x="121.5099"
           y="80.433334"
           id="text11966"><tspan
             sodipodi:role="line"
             id="tspan11964"
             style="stroke-width:0.1"
             x="121.5099"
             y="80.433334"
             dy="1">2c) <tspan
   style="fill:#000000;fill-opacity:1;stroke:none"
   id="tspan12020">Reward for</tspan></tspan><tspan
             sodipodi:role="line"
             style="fill:#000000;fill-opacity:1;stroke:none;stroke-width:0.1"
             x="121.5099"
             y="84.071358"
             id="tspan12018">engagement</tspan></text><text
           xml:space="preserve"
           style="font-size:2.91042px;font-family:'Times New Roman';-inkscape-font-specification:'Times New Roman, ';fill:#000000;fill-opacity:1;stroke-width:0.1"
           x="79.771873"
           y="43.391666"
           id="text1402"><tspan
             sodipodi:role="line"
             id="tspan1400"
             style="stroke-width:0.1"
             x="79.771873"
             y="43.391666">1a) Leader elections begins</tspan></text><text
           xml:space="preserve"
           style="font-size:2.91042px;font-family:'Times New Roman';-inkscape-font-specification:'Times New Roman, ';fill:#000000;fill-opacity:1;stroke-width:0.1"
           x="79.771873"
           y="39.687496"
           id="text1410"><tspan
             sodipodi:role="line"
             id="tspan1408"
             style="stroke-width:0.1"
             x="79.771873"
             y="39.687496">1b) Candidates are ordered sequentially</tspan></text><text
           xml:space="preserve"
           style="font-size:2.91042px;font-family:'Times New Roman';-inkscape-font-specification:'Times New Roman, ';fill:#000000;fill-opacity:1;stroke-width:0.1"
           x="79.771873"
           y="24.341648"
           id="text1414"><tspan
             sodipodi:role="line"
             id="tspan1412"
             style="stroke-width:0.1"
             x="79.771873"
             y="24.341648">1c) Randao randomness selects one</tspan><tspan
             sodipodi:role="line"
             style="stroke-width:0.1"
             x="79.771873"
             y="27.979673"
             id="tspan1416">candidate as a leader</tspan></text><text
           xml:space="preserve"
           style="font-size:2.91042px;font-family:'Times New Roman';-inkscape-font-specification:'Times New Roman, ';fill:#000000;fill-opacity:1;stroke-width:0.1"
           x="108.87604"
           y="4.7624998"
           id="text1420"><tspan
             sodipodi:role="line"
             id="tspan1418"
             style="stroke-width:0.1"
             x="108.87604"
             y="4.7624998">1d) The leader is allowed to</tspan><tspan
             sodipodi:role="line"
             style="stroke-width:0.1"
             x="108.87604"
             y="8.4005251"
             id="tspan1422">propose a new block</tspan></text><text
           xml:space="preserve"
           style="font-size:2.91042px;font-family:'Times New Roman';-inkscape-font-specification:'Times New Roman, ';fill:#464646;fill-opacity:1;stroke:none;stroke-width:0.371999"
           x="76.927605"
           y="8.3343744"
           id="text1213"><tspan
             sodipodi:role="line"
             id="tspan1211"
             style="stroke-width:0.372;stroke:none"
             x="76.927605"
             y="8.3343744">beneficiary: 0xb... (Bob)</tspan><tspan
             sodipodi:role="line"
             style="stroke-width:0.372;stroke:none"
             x="76.927605"
             y="11.9724"
             id="tspan1215">new_randomness</tspan><tspan
             sodipodi:role="line"
             style="stroke-width:0.372;stroke:none"
             x="76.927605"
             y="15.610424"
             id="tspan1217">attestations for n-1</tspan><tspan
             sodipodi:role="line"
             style="stroke-width:0.372;stroke:none"
             x="76.927605"
             y="19.248449"
             id="tspan1219">...</tspan></text></g><text
         xml:space="preserve"
         style="font-size:2.91042px;font-family:'Times New Roman';-inkscape-font-specification:'Times New Roman, ';fill:#000000;fill-opacity:1;stroke-width:0.1"
         x="92.405724"
         y="59.266666"
         id="text1779"><tspan
           sodipodi:role="line"
           id="tspan1777"
           style="stroke-width:0.1"
           x="92.405724"
           y="59.266666">Creator</tspan></text><text
         xml:space="preserve"
         style="font-size:2.91042px;font-family:'Times New Roman';-inkscape-font-specification:'Times New Roman, ';fill:#000000;fill-opacity:1;stroke-width:0.1"
         x="92.405724"
         y="95.250031"
         id="text1783"><tspan
           sodipodi:role="line"
           id="tspan1781"
           style="stroke-width:0.1"
           x="92.405724"
           y="95.250031">Followers</tspan></text></g></g></svg>
